<?xml version="1.0" encoding="utf-8"?>
<!-- Generator: Adobe Illustrator 16.0.0, SVG Export Plug-In . SVG Version: 6.00 Build 0)  -->
<!DOCTYPE svg PUBLIC "-//W3C//DTD SVG 1.1//EN" "http://www.w3.org/Graphics/SVG/1.1/DTD/svg11.dtd">
<svg version="1.1" id="Layer_1" xmlns="http://www.w3.org/2000/svg" xmlns:xlink="http://www.w3.org/1999/xlink" x="0px" y="0px"
	 width="201.608px" height="133px" viewBox="0 0 201.608 133" enable-background="new 0 0 201.608 133" xml:space="preserve">
<g>
	<path fill="#FFFFFF" d="M131.056,64.614l-1.5,0.5l2.469,2.766l6.594,3.938l6.141,1.734l2.766,0.594l-0.5,2.219
		c0,0,17.625-2.5,23.203-8.531L131.056,64.614z"/>
	<path fill="#FFFFFF" d="M151.202,74.108c-10.697,0-17.239-4.783-20.188-7.634l-2.036-1.969l2.537-1.26
		c6.99-3.471,11.687-12.733,11.687-23.05c0-3.321-0.468-6.522-1.393-9.538h-10.292l12.421-11.095
		c4.755-4.344,10.318-9.393,15.408-13.783l1.173-1.012l10.312,7.147c-0.017-0.41-0.035-0.82-0.057-1.23l-0.118-2.245l2.243,0.144
		c2.151,0.138,4.309,0.279,6.463,0.421l2.642,0.174l0.096,1.771c0.146,2.702,0.221,5.634,0.229,8.933l15.872,11.002l-10.696-0.324
		c0.039,6.179-0.719,12.402-2.259,18.531l-0.507,2.019l-0.19-0.056c-0.677,1.802-1.896,4.6-3.719,7.181l-0.096,0.135
		c-0.186,0.261-0.388,0.535-0.6,0.805l-2.439,3.105c-1.391,1.615-2.799,3.056-4.242,4.348c-1.215,1.064-4.115,3.334-8.423,5.018
		l0.851,0.329l-6.777,1.337C156.391,73.84,153.732,74.108,151.202,74.108z M135.812,65.322c3.264,2.462,8.239,4.786,15.39,4.786
		c1.42,0,2.89-0.096,4.394-0.283l2.772-0.462c0.443-0.072,0.871-0.161,1.295-0.252c0.167-0.038,0.358-0.086,0.55-0.133l0.207-0.051
		c5.478-1.369,9.086-4.159,10.383-5.295c1.299-1.163,2.586-2.479,3.808-3.896l2.381-3.035c0.175-0.222,0.34-0.445,0.501-0.671
		l0.071-0.102c2.537-3.593,3.776-7.842,3.788-7.885l0.229-0.795c1.475-6.189,2.107-12.47,1.883-18.68l-0.077-2.136l1.436,0.043
		l-6.492-4.5l0.002-1.049c0.004-2.931-0.042-5.562-0.141-7.991c-1.108-0.072-2.218-0.146-3.326-0.217
		c0.029,0.863,0.052,1.727,0.074,2.591l0.115,4.398L160.79,9.822c-4.727,4.111-9.784,8.702-14.171,12.709L142,26.658h0.048
		l1.696-1.35l0.506,1.35h0.41l0.475,1.326c1.372,3.83,2.067,7.938,2.067,12.212C147.202,50.762,142.722,60.447,135.812,65.322z"/>
	<g>
		<path fill="#FFFFFF" d="M87.781,42.017c13.074,0,26.14,6.139,36.283,18.388l-0.01,0.001l3.351,4.211l0.03-0.022
			c5.465,6.493,12.46,9.756,19.464,9.756h-10.22h-8.66h-10.009c-0.603,0-1.201-0.032-1.803-0.08l0.369-0.027
			c-0.069,0.001-0.138,0.002-0.206,0.002c-0.242,0-0.482-0.008-0.725-0.021c-0.905-0.095-1.808-0.249-2.703-0.456
			c-7.465-2.003-16.762-12.817-16.762-12.817C86.048,48.327,72.791,42.017,59.535,42.017h9.37h9.3h0.003h9.57H87.781 M87.781,40.017
			h-0.003h-9.57h-9.303h-9.37c-1.104,0-2,0.896-2,2s0.896,2,2,2c13.211,0,25.672,6.458,35.087,18.185
			c0.014,0.018,0.028,0.035,0.043,0.052c0.396,0.461,9.791,11.307,17.76,13.445c0.023,0.006,0.045,0.012,0.068,0.017
			c0.987,0.229,1.979,0.396,2.945,0.497c0.031,0.003,0.063,0.006,0.095,0.008c0.099,0.005,0.197,0.01,0.296,0.014
			c0.072,0.014,0.146,0.023,0.221,0.03c0.74,0.059,1.363,0.086,1.961,0.086h10.009h8.66h10.22c1.104,0,2-0.896,2-2s-0.896-2-2-2
			c-6.656,0-13.025-3.212-17.934-9.044c-0.073-0.087-0.152-0.166-0.236-0.237l-2.994-3.763c-0.04-0.062-0.083-0.12-0.131-0.177
			C115.398,46.805,101.966,40.017,87.781,40.017L87.781,40.017z"/>
		<path fill="#FFFFFF" d="M55.244,42.081h0.005 M55.244,42.081c-19.179,3.406-33.587,17.86-33.587,35.18
			c0,5.825,1.646,11.319,4.542,16.186c0.036,0.038,0.067,0.083,0.104,0.121c-0.019-0.011-0.034-0.021-0.053-0.031
			c0.017,0.028,0.031,0.058,0.048,0.086c-0.062-0.055-0.127-0.112-0.19-0.169C1.105,79.265,3.64,65.935,8.759,58.142
			c0,0,0.485-0.78,0.808-1.165c2.743-3.716,6.015-5.829,6.015-5.829c7.605-6.044,16.816-9.066,26.024-9.066h6.495H52.8H55.244
			 M55.249,40.081h-0.005H52.8h-4.699h-6.495c-9.846,0-19.502,3.354-27.2,9.446c-0.582,0.391-3.721,2.584-6.416,6.218
			c-0.385,0.473-0.839,1.195-0.929,1.34c-3.315,5.046-4.41,10.518-3.14,15.782c1.899,7.874,8.971,15.351,21.016,22.221l0.044,0.039
			c0.376,0.33,0.847,0.495,1.317,0.495c0.452,0,0.904-0.152,1.275-0.459c0.432-0.357,0.679-0.863,0.719-1.389
			c0.055-0.527-0.101-1.07-0.46-1.496c-2.771-4.71-4.175-9.762-4.175-15.018c0-15.947,13.416-29.906,31.903-33.204
			c0.955-0.152,1.686-0.979,1.686-1.976C57.247,40.977,56.354,40.081,55.249,40.081L55.249,40.081z"/>
	</g>
	<g>
		<defs>
			<path id="SVGID_1_" d="M41.607,42.081c-9.208,0-18.419,3.022-26.024,9.066c0,0-3.271,2.113-6.015,5.829
				c-0.322,0.385-0.808,1.165-0.808,1.165c-5.133,7.813-7.673,21.194,17.544,35.426c-3.864-4.104-6.278-9.893-6.278-16.313
				c0-1.36,0.114-2.692,0.323-3.987c-0.04-1.379,0.084-2.846,0.712-3.383c0.037-0.031,0.076-0.075,0.116-0.128
				c0.407-1.288,0.92-2.522,1.522-3.692c1.111-3.39,2.35-8.072,2.883-10.131c7.403-8.175,17.176-12.727,27.219-13.661v-0.19H41.607z
				"/>
		</defs>
		<clipPath id="SVGID_2_">
			<use xlink:href="#SVGID_1_"  overflow="visible"/>
		</clipPath>
		
			<linearGradient id="SVGID_3_" gradientUnits="userSpaceOnUse" x1="-253.7959" y1="339.249" x2="-252.7959" y2="339.249" gradientTransform="matrix(0 -51.4851 -51.4851 0 17493.2344 -12973.1348)">
			<stop  offset="0" style="stop-color:#5C802B"/>
			<stop  offset="0.4049" style="stop-color:#5C802B"/>
			<stop  offset="0.6442" style="stop-color:#9BCB4A"/>
			<stop  offset="0.8957" style="stop-color:#C9E4BD"/>
			<stop  offset="1" style="stop-color:#C9E4BD"/>
		</linearGradient>
		<rect x="1.088" y="42.081" clip-path="url(#SVGID_2_)" fill="url(#SVGID_3_)" width="51.714" height="51.486"/>
	</g>
	<g>
		<defs>
			<path id="SVGID_4_" d="M145.272,21.055l-8.512,7.604h5.987l0.091-0.072c0,0,0.012,0.031,0.03,0.072h0.385
				c1.249,3.487,1.95,7.401,1.95,11.538c0,11.41-5.329,21.133-12.797,24.841c3.298,3.189,11.539,9.188,26.317,6.312l-0.03-0.012
				c0.476-0.078,0.936-0.173,1.391-0.271c0.268-0.061,0.541-0.13,0.812-0.196c5.888-1.472,9.817-4.5,11.225-5.732
				c1.377-1.232,2.715-2.599,4.005-4.096c0.472-0.599,1.227-1.561,2.439-3.105c0.192-0.244,0.376-0.493,0.556-0.745
				c0.026-0.036,0.053-0.073,0.077-0.109c2.778-3.935,4.077-8.487,4.077-8.487l0.033,0.01c1.667-6.636,2.397-13.381,2.154-20.107
				l6.05,0.184l-11.181-7.75c0.005-3.293-0.051-6.587-0.228-9.873c-2.442-0.16-4.891-0.321-7.331-0.478
				c0.092,1.745,0.133,3.49,0.179,5.237l-12.298-8.523C155.901,11.396,150.796,16.009,145.272,21.055"/>
		</defs>
		<clipPath id="SVGID_5_">
			<use xlink:href="#SVGID_4_"  overflow="visible"/>
		</clipPath>
		
			<linearGradient id="SVGID_6_" gradientUnits="userSpaceOnUse" x1="-257.4155" y1="338.5" x2="-256.4159" y2="338.5" gradientTransform="matrix(41.219 -58.8669 -58.8669 -41.219 30677.4453 -1129.6406)">
			<stop  offset="0" style="stop-color:#00243B"/>
			<stop  offset="0.2699" style="stop-color:#00243B"/>
			<stop  offset="0.6258" style="stop-color:#1176A3"/>
			<stop  offset="1" style="stop-color:#1176A3"/>
		</linearGradient>
		<polygon clip-path="url(#SVGID_5_)" fill="url(#SVGID_6_)" points="100.96,52.206 151.853,-20.477 222.961,29.313 
			172.068,101.996 		"/>
	</g>
	<g>
		<path fill="#FFFFFF" d="M144.465,87.136v0.771h-2.35l-0.023,6.166c0,0.543,0.05,0.953,0.149,1.231
			c0.185,0.492,0.545,0.738,1.083,0.738c0.276,0,0.517-0.061,0.72-0.182s0.436-0.314,0.697-0.578l0.299,0.235l-0.253,0.321
			c-0.399,0.5-0.822,0.853-1.268,1.06s-0.875,0.311-1.289,0.311c-0.906,0-1.521-0.374-1.843-1.124
			c-0.177-0.406-0.266-0.971-0.266-1.691v-6.487h-1.255c-0.039-0.021-0.067-0.043-0.087-0.064c-0.019-0.021-0.028-0.05-0.028-0.086
			c0-0.071,0.018-0.127,0.052-0.166s0.144-0.13,0.328-0.272c0.53-0.407,0.912-0.737,1.146-0.99c0.233-0.254,0.784-0.923,1.652-2.008
			c0.1,0,0.159,0.007,0.179,0.021c0.019,0.015,0.028,0.067,0.028,0.16v2.634H144.465z"/>
		<path fill="#FFFFFF" d="M145.682,88.437c0.972-0.981,2.221-1.472,3.749-1.472c1.521,0,2.779,0.464,3.777,1.392
			s1.498,2.162,1.498,3.704c0,1.421-0.484,2.655-1.451,3.704c-0.968,1.05-2.22,1.574-3.755,1.574c-1.475,0-2.723-0.503-3.743-1.51
			c-1.021-1.006-1.532-2.27-1.532-3.79C144.225,90.619,144.71,89.418,145.682,88.437z M147.521,88.164
			c-0.769,0.649-1.153,1.77-1.153,3.361c0,1.271,0.31,2.455,0.929,3.555c0.619,1.099,1.479,1.648,2.579,1.648
			c0.861,0,1.525-0.367,1.99-1.103c0.466-0.735,0.698-1.699,0.698-2.891c0-1.235-0.296-2.398-0.889-3.49s-1.45-1.638-2.573-1.638
			C148.494,87.607,147.967,87.793,147.521,88.164z"/>
	</g>
	<path fill="#FFFFFF" d="M31.674,104.736c-2.347,0.193-2.556,0.358-2.556,2.675v10.811c0,2.315,0.237,2.481,2.556,2.675v0.882
		h-8.675v-0.882c2.436-0.193,2.674-0.359,2.674-2.675v-5.268H16.82v5.268c0,2.315,0.237,2.481,2.524,2.675v0.882h-8.466v-0.882
		c2.227-0.193,2.495-0.359,2.495-2.675v-10.811c0-2.316-0.269-2.481-2.614-2.675v-0.882h8.496v0.882
		c-2.198,0.193-2.436,0.358-2.436,2.675v4.219h8.853v-4.219c0-2.316-0.238-2.481-2.495-2.675v-0.882h8.496V104.736z"/>
	<path fill="#FFFFFF" d="M45.133,115.491c0,4.44-3.445,6.618-6.743,6.618c-4.455,0-6.804-3.088-6.804-6.122
		c0-4.467,3.773-6.673,6.922-6.673C42.46,109.314,45.133,112.154,45.133,115.491 M35.3,115.022c0,3.42,1.338,6.066,3.416,6.066
		c1.396,0,2.703-0.882,2.703-4.854c0-3.584-1.187-5.901-3.355-5.901C36.638,110.334,35.3,111.878,35.3,115.022"/>
	<path fill="#FFFFFF" d="M61.683,121.778v-0.828c1.456-0.164,1.723-0.275,1.723-2.068v-4.715c0-2.15-1.011-2.868-2.288-2.868
		c-0.742,0-1.634,0.304-2.643,1.075c0.028,0.331,0.059,0.69,0.059,1.131v5.517c0,1.626,0.237,1.765,1.693,1.929v0.828h-6.685v-0.828
		c1.545-0.164,1.724-0.275,1.724-1.957v-4.909c0-2.013-0.892-2.812-2.259-2.812c-0.891,0-1.781,0.468-2.613,1.075v6.646
		c0,1.654,0.208,1.793,1.455,1.957v0.828h-6.713v-0.828c1.781-0.164,1.989-0.275,1.989-2.04v-5.763c0-1.655-0.119-1.849-1.604-2.096
		v-0.718c1.337-0.221,3.179-0.579,4.812-1.076v2.152c0.653-0.415,1.219-0.854,1.99-1.269c0.862-0.496,1.634-0.827,2.525-0.827
		c1.573,0,2.792,0.883,3.356,2.206c0.773-0.552,1.516-0.993,2.229-1.462c0.683-0.387,1.456-0.744,2.316-0.744
		c2.495,0,3.921,1.599,3.921,4.356v5.322c0,1.682,0.149,1.765,1.755,1.957v0.828H61.683z"/>
	<path fill="#FFFFFF" d="M79.717,119.214c-1.812,2.343-4.041,2.895-5.17,2.895c-3.831,0-6-2.729-6-5.9
		c0-2.041,0.862-3.75,2.109-4.909c1.277-1.24,2.912-1.985,4.456-1.985h0.03c2.644,0,4.693,2.124,4.693,4.329
		c0,0.553-0.179,0.855-0.802,0.966c-0.506,0.056-4.16,0.331-7.308,0.441c0.089,3.254,2.05,4.771,4.158,4.771
		c1.158,0,2.287-0.387,3.327-1.27L79.717,119.214z M71.874,113.809c1.366,0,2.673-0.027,4.07-0.083c0.476,0,0.654-0.109,0.654-0.551
		c0-1.407-0.773-2.786-2.109-2.786C73.271,110.389,72.143,111.63,71.874,113.809"/>
	<path fill="#FFFFFF" d="M93.74,115.491c0,4.44-3.446,6.618-6.744,6.618c-4.455,0-6.804-3.088-6.804-6.122
		c0-4.467,3.773-6.673,6.923-6.673C91.066,109.314,93.74,112.154,93.74,115.491 M83.907,115.022c0,3.42,1.337,6.066,3.417,6.066
		c1.395,0,2.701-0.882,2.701-4.854c0-3.584-1.187-5.901-3.355-5.901C85.244,110.334,83.907,111.878,83.907,115.022"/>
	<path fill="#FFFFFF" d="M113.676,110.473c-1.456,0.22-1.664,0.469-2.287,1.93c-1.011,2.426-2.288,5.873-3.714,9.679h-1.039
		c-1.159-2.729-2.377-5.349-3.536-7.997c-1.099,2.62-2.228,5.212-3.357,7.997h-1.039c-1.158-3.336-2.377-6.673-3.535-9.844
		c-0.505-1.379-0.742-1.627-2.079-1.765v-0.828h6.921v0.828c-1.752,0.247-1.901,0.469-1.544,1.517
		c0.624,1.902,1.276,3.888,1.9,5.763h0.06c1.069-2.51,2.08-5.156,3.209-7.97h1.04c1.068,2.647,2.227,5.323,3.445,8.025h0.06
		c0.506-1.518,1.396-4.138,1.782-5.626c0.298-1.187,0.148-1.462-1.723-1.709v-0.828h5.437V110.473z"/>
	<path fill="#FFFFFF" d="M121.431,121.778v-0.828c1.426-0.164,1.604-0.303,1.604-2.233v-4.659c0-1.958-0.891-2.785-2.287-2.785
		c-0.921,0-1.753,0.44-2.585,1.048v6.59c0,1.765,0.179,1.876,1.575,2.04v0.828h-6.893v-0.828c1.901-0.22,2.051-0.303,2.051-2.122
		v-5.709c0-1.682-0.149-1.793-1.664-2.067v-0.718c1.574-0.221,3.327-0.579,4.931-1.076v2.097c0.595-0.386,1.218-0.827,1.902-1.241
		c0.86-0.524,1.515-0.799,2.376-0.799c2.377,0,3.861,1.599,3.861,4.329v5.267c0,1.765,0.179,1.848,1.782,2.04v0.828H121.431z"/>
	<path fill="#FFFFFF" d="M139.316,119.214c-1.812,2.343-4.041,2.895-5.17,2.895c-3.831,0-6-2.729-6-5.9
		c0-2.041,0.861-3.75,2.108-4.909c1.277-1.24,2.912-1.985,4.456-1.985h0.03c2.644,0,4.694,2.124,4.694,4.329
		c0,0.553-0.18,0.855-0.803,0.966c-0.506,0.056-4.159,0.331-7.308,0.441c0.089,3.254,2.049,4.771,4.159,4.771
		c1.158,0,2.287-0.387,3.327-1.27L139.316,119.214z M131.474,113.809c1.365,0,2.673-0.027,4.069-0.083
		c0.477,0,0.653-0.109,0.653-0.551c0-1.407-0.772-2.786-2.108-2.786C132.869,110.389,131.741,111.63,131.474,113.809"/>
	<path fill="#FFFFFF" d="M144.636,112.237c1.01-1.627,2.228-2.923,3.445-2.923c1.129,0,1.901,0.771,1.901,1.599
		s-0.564,1.516-1.277,1.765c-0.386,0.166-0.684,0.082-0.861-0.083c-0.506-0.386-0.862-0.551-1.337-0.551
		c-0.654,0-1.366,0.496-1.932,1.765v5.102c0,1.738,0.149,1.875,2.437,2.041v0.827h-7.664v-0.827c1.692-0.166,1.96-0.303,1.96-2.041
		v-5.901c0-1.571-0.179-1.682-1.692-1.958v-0.717c1.663-0.192,3.267-0.523,4.96-1.076v2.979H144.636z"/>
	<path fill="#FFFFFF" d="M157.618,113.092c-0.713-1.654-1.694-2.785-3.119-2.785c-0.921,0-1.664,0.688-1.664,1.655
		c0,0.965,0.862,1.627,2.317,2.206c2.347,0.937,3.922,1.902,3.922,3.971c0,2.646-2.704,3.971-5.17,3.971
		c-1.544,0-3.061-0.524-3.624-0.938c-0.208-0.413-0.476-2.345-0.476-3.558l0.832-0.083c0.623,1.766,1.991,3.559,3.773,3.559
		c1.009,0,1.812-0.69,1.812-1.655c0-0.938-0.563-1.6-2.287-2.372c-1.516-0.662-3.773-1.682-3.773-3.971
		c0-2.068,1.842-3.75,4.842-3.777c1.309,0,2.11,0.247,2.764,0.496c0.298,0.606,0.654,2.454,0.713,3.062L157.618,113.092z"/>
	<path fill="#FFFFFF" d="M167.097,121.778v-0.828c1.544-0.164,1.692-0.358,1.692-1.985v-4.742c0-2.179-0.98-3.033-2.436-3.033
		c-0.861,0-1.782,0.303-2.495,1.02v6.756c0,1.627,0.148,1.821,1.574,1.985v0.828h-6.773v-0.828c1.723-0.137,1.932-0.275,1.932-2.04
		v-12.961c0-1.71-0.119-1.765-1.783-1.929v-0.745c1.515-0.166,3.506-0.579,5.051-0.965v8.879c1.039-0.965,2.554-1.875,4.069-1.875
		c2.555,0,4.13,1.517,4.13,4.632v4.964c0,1.765,0.208,1.848,1.783,2.04v0.828H167.097z"/>
	<path fill="#FFFFFF" d="M173.812,121.778v-0.828c1.783-0.164,1.961-0.303,1.961-2.233v-5.542c0-1.765-0.148-1.876-1.723-2.096
		v-0.772c1.692-0.193,3.476-0.552,4.991-1.021v9.431c0,1.875,0.147,2.041,1.989,2.233v0.828H173.812z M175.326,105.591
		c0-0.991,0.861-1.765,1.902-1.765c1.039,0,1.871,0.773,1.871,1.765c0,0.938-0.832,1.737-1.901,1.737
		C176.188,107.328,175.326,106.528,175.326,105.591"/>
	<path fill="#FFFFFF" d="M187.805,109.811c0.563-0.331,1.099-0.496,1.574-0.496c3.416,0,5.317,2.62,5.317,5.295
		c0,4.081-3.446,6.728-7.279,7.5c-0.801,0-1.484-0.221-1.93-0.387v3.559c0,1.764,0.178,1.929,2.465,2.122v0.828h-7.812v-0.828
		c1.9-0.164,2.08-0.358,2.08-2.014v-12.408c0-1.626-0.208-1.737-1.812-1.931v-0.771c1.485-0.222,3.327-0.717,5.08-1.241v2.069
		L187.805,109.811z M185.487,119.655c0.594,0.551,1.723,1.075,2.555,1.075c1.932,0,3.268-1.903,3.268-4.854
		c0-3.254-1.841-4.633-3.564-4.633c-0.802,0-1.634,0.386-2.258,0.854V119.655z"/>
	<path fill="#FFFFFF" d="M46.441,83.469c4.808,0.583,8.494,2.369,8.494,6.214c0,2.604-1.634,4.545-4.34,5.826
		c-2.333,1.088-5.367,1.516-9.053,1.516h-9.987v-0.776c3.874-0.234,4.2-0.506,4.2-3.807v-16.08c0-3.302-0.234-3.573-3.827-3.768
		v-0.776h11.527c3.5,0,5.646,0.466,7.047,1.32c1.632,0.933,2.565,2.563,2.565,4.39c0,3.688-3.778,5.242-6.627,5.863V83.469z
		 M41.543,83.119c5.413,0,7.372-1.825,7.372-5.126c0-2.68-1.68-5.205-6.205-5.205c-1.027,0-2.007,0.116-2.521,0.35
		c-0.513,0.194-0.652,0.66-0.652,2.021v7.961H41.543z M39.536,92.286c0,2.912,0.934,3.689,3.826,3.689
		c3.827,0,7.141-1.786,7.141-5.903c0-4.001-3.08-5.943-9.007-5.943h-1.96V92.286z M60.896,83.936
		c1.261-1.825,3.314-4.156,5.554-4.156c1.493,0,2.52,1.01,2.52,1.864c0,0.699-0.559,1.398-1.398,1.747
		c-0.515,0.194-0.936,0.156-1.168-0.076c-0.699-0.545-1.213-0.816-2.007-0.816c-1.12,0-2.472,1.049-3.593,3.184v7.498
		c0,2.64,0.233,2.912,3.78,3.107v0.737H54.177v-0.737c2.753-0.195,3.127-0.468,3.127-3.069v-8.312c0-2.563-0.232-2.72-2.846-3.03
		v-0.62c2.146-0.271,4.105-0.739,6.346-1.593v4.272H60.896z M69.728,97.024v-0.737c2.848-0.234,3.221-0.468,3.221-3.147v-8.271
		c0-2.409-0.188-2.564-2.801-2.992v-0.66c2.1-0.31,4.247-0.776,6.301-1.515V93.14c0,2.68,0.326,2.913,3.266,3.147v0.737H69.728z
		 M72.342,74.342c0-1.049,0.979-1.826,2.146-1.826c1.168,0,2.101,0.777,2.101,1.826c0,0.972-0.933,1.786-2.146,1.786
		C73.321,76.128,72.342,75.313,72.342,74.342 M101.553,96.053c-1.073,0.155-4.386,0.622-6.952,1.438v-2.564L91.8,96.325
		c-1.914,0.933-3.08,1.166-3.686,1.166c-3.642,0-8.447-2.798-8.447-8.196c0-5.282,5.507-9.516,11.806-9.516
		c0.7,0,2.007,0.077,3.128,0.428V74.07c0-2.524-0.234-2.72-3.501-2.913v-0.622c2.287-0.232,5.32-0.854,7-1.32v23.576
		c0,2.019,0.28,2.252,2.007,2.446l1.446,0.116V96.053z M94.601,83.042c-1.121-1.437-3.034-2.058-4.808-2.058
		c-2.332,0-6.112,1.67-6.112,7.301c0,4.622,3.359,6.991,6.439,6.991c1.68,0,3.406-0.659,4.48-1.359V83.042z M120.685,80.517
		c-0.42,0.622-1.306,1.556-2.007,1.903l-2.659-0.116c0.934,0.854,1.447,2.137,1.447,3.495c0,4.234-4.201,6.254-7.934,6.254
		c-0.84,0-1.634-0.078-2.427-0.232c-0.56,0.349-1.353,1.127-1.353,1.67c0,0.815,0.933,1.553,2.986,1.553
		c1.539,0,3.221-0.038,4.853-0.038c2.707,0,6.393,0.776,6.393,4.504c0,3.847-5.179,7.73-11.339,7.73
		c-5.086,0-7.793-2.486-7.887-4.699c0-0.816,0.374-1.515,1.073-2.059c0.888-0.776,2.801-2.098,4.06-2.914
		c-1.725-0.388-2.986-1.359-3.592-2.214c-0.373-0.544-0.513-1.203-0.468-1.592c1.867-0.544,3.454-1.476,4.154-2.254
		c-2.24-0.775-4.199-2.679-4.199-5.243c0-4.427,4.618-6.485,8.118-6.485h0.048c1.493,0,2.938,0.389,4.339,1.088
		c2.334-0.117,4.76-0.389,6.207-0.622L120.685,80.517z M106.405,98.423c-1.213,0.854-2.238,1.941-2.238,3.185
		c0,2.137,2.752,3.845,6.159,3.845c4.571,0,6.72-1.903,6.72-4.427c0-1.399-0.794-2.447-2.148-2.913
		c-1.165-0.39-2.519-0.505-4.524-0.505C108.318,97.607,107.292,97.84,106.405,98.423 M105.612,85.527
		c0,3.263,1.773,5.516,4.387,5.516c2.007-0.078,3.826-1.438,3.826-4.738c0-3.224-1.681-5.594-4.434-5.594
		C107.432,80.711,105.612,82.381,105.612,85.527 M135.805,93.684c-2.8,3.068-6.067,3.808-7.373,3.808
		c-5.647,0-8.914-3.847-8.914-8.196c0-2.602,1.121-4.972,3.034-6.72c1.866-1.708,4.387-2.796,6.672-2.796h0.048
		c3.78,0,6.721,2.835,6.721,5.632c0,0.699-0.234,0.932-1.028,1.087c-0.746,0.117-6.393,0.505-11.992,0.661
		c-0.047,5.71,3.779,7.846,7.093,7.846c1.728,0,3.453-0.583,5.181-1.942L135.805,93.684z M123.206,85.838
		c2.659,0,5.271-0.039,7.979-0.116c0.7,0,0.981-0.232,0.981-0.698c0.045-2.021-1.401-4.039-4.154-4.039
		C125.959,80.984,123.857,82.692,123.206,85.838"/>
	<g>
		<defs>
			<path id="SVGID_7_" d="M78.207,42.017h-18.67c13.256,0,26.513,6.311,36.646,18.933c0,0,9.297,10.814,16.762,12.817
				c0.896,0.207,1.798,0.361,2.703,0.456c0.311,0.018,0.619,0.025,0.931,0.02l-0.369,0.027c0.602,0.048,1.2,0.08,1.803,0.08h18.669
				c-6.476,0-12.946-2.799-18.184-8.369c-10.468-15.97-25.38-23.964-40.288-23.964H78.207z"/>
		</defs>
		<clipPath id="SVGID_8_">
			<use xlink:href="#SVGID_7_"  overflow="visible"/>
		</clipPath>
		
			<linearGradient id="SVGID_9_" gradientUnits="userSpaceOnUse" x1="-260.4067" y1="338.5801" x2="-259.4067" y2="338.5801" gradientTransform="matrix(55.0903 -22.2579 -22.2579 -55.0903 21952.5469 12925.6953)">
			<stop  offset="0" style="stop-color:#5C802B"/>
			<stop  offset="0.4049" style="stop-color:#5C802B"/>
			<stop  offset="0.6442" style="stop-color:#9BCB4A"/>
			<stop  offset="0.8957" style="stop-color:#C9E4BD"/>
			<stop  offset="1" style="stop-color:#C9E4BD"/>
		</linearGradient>
		<polygon clip-path="url(#SVGID_8_)" fill="url(#SVGID_9_)" points="48.307,46.554 125.855,15.222 147.911,69.812 70.363,101.144 
					"/>
	</g>
	<g>
		<defs>
			<path id="SVGID_10_" d="M87.78,42.017H68.907c9.83,0,19.663,3.463,28.248,10.391c3.397,2.741,6.595,6.038,9.526,9.865
				c1.666,1.921,3.692,4.213,4.939,5.479c4.902,4.388,10.647,6.599,16.4,6.599h18.88c-7.004,0-13.999-3.263-19.464-9.756
				l-0.03,0.022l-3.351-4.211l0.01-0.001c-10.144-12.249-23.209-18.388-36.283-18.388H87.78z"/>
		</defs>
		<clipPath id="SVGID_11_">
			<use xlink:href="#SVGID_10_"  overflow="visible"/>
		</clipPath>
		
			<linearGradient id="SVGID_12_" gradientUnits="userSpaceOnUse" x1="-260.082" y1="330.1035" x2="-259.0831" y2="330.1035" gradientTransform="matrix(0 68.8224 68.8224 0 -22610.5703 17921.2852)">
			<stop  offset="0" style="stop-color:#00243B"/>
			<stop  offset="0.2699" style="stop-color:#00243B"/>
			<stop  offset="0.6258" style="stop-color:#1176A3"/>
			<stop  offset="1" style="stop-color:#1176A3"/>
		</linearGradient>
		<rect x="68.907" y="42.017" clip-path="url(#SVGID_11_)" fill="url(#SVGID_12_)" width="77.993" height="32.332"/>
	</g>
	<path fill-rule="evenodd" clip-rule="evenodd" fill="#FFFFFF" d="M151.353,100.598c-5.288-1.475-8.48-1.209-9.325,0.337
		l-1.055,1.936c0.749-1.376,3.356-1.737,7.64-0.765c0,0,3.705,0.771,4.719,0.316c0.108-0.061,0.205-0.128,0.283-0.207
		c0.025-0.028,0.043-0.061,0.058-0.095l-0.011,0.044c0.05-0.055,0.092-0.111,0.125-0.175l1.056-1.935
		C154.476,100.726,153.288,100.948,151.353,100.598"/>
	<path fill="#9BCB4A" d="M163.573,32.004c2.13-0.08,4.255-0.281,6.36-0.661c-0.061,2.579-0.353,5.147-0.872,7.645
		c-2.156-0.286-4.309-0.585-6.463-0.896C163.157,36.132,163.485,34.076,163.573,32.004 M156.601,31.9
		c-0.091,1.751-0.346,3.489-0.773,5.166c1.996,0.315,3.999,0.619,6.001,0.912c0.429-1.939,0.682-3.938,0.743-5.948
		C160.581,32.072,158.589,32.017,156.601,31.9 M169.407,23.555c-2.179,0.356-4.357,0.72-6.536,1.088
		c0.502,2.105,0.746,4.298,0.722,6.486c2.121-0.132,4.237-0.339,6.342-0.663C169.942,28.153,169.772,25.835,169.407,23.555
		 M161.989,24.792c-1.921,0.327-3.84,0.656-5.759,0.99c0.324,1.818,0.456,3.681,0.399,5.53c1.986,0.008,3.97-0.031,5.953-0.132
		C162.595,29.034,162.396,26.885,161.989,24.792"/>
	<rect x="11.252" y="127.545" fill="#FFFFFF" width="165.204" height="0.307"/>
	<rect x="36.369" y="102.428" fill="#FFFFFF" width="58.197" height="0.307"/>
	<rect x="123.36" y="102.428" fill="#FFFFFF" width="11.026" height="0.307"/>
	<g>
		<defs>
			<path id="SVGID_13_" d="M48.103,42.081c-11.838,0-23.672,5.271-32.025,15.778c-0.002,0-0.007-0.006-0.007-0.006
				s-0.093,0.105-0.246,0.317c-0.106,0.138-0.272,0.403-0.272,0.403c-0.604,0.942-1.61,2.861-2.363,6.07l0.006-0.001
				C9.84,76.46,18.946,87.199,26.3,93.622c-2.96-4.908-4.641-10.467-4.641-16.361c0-17.319,14.408-31.773,33.587-35.18H48.103z"/>
		</defs>
		<clipPath id="SVGID_14_">
			<use xlink:href="#SVGID_13_"  overflow="visible"/>
		</clipPath>
		
			<linearGradient id="SVGID_15_" gradientUnits="userSpaceOnUse" x1="-253.8086" y1="339.2188" x2="-252.8086" y2="339.2188" gradientTransform="matrix(0 -51.5411 -51.5411 0 17516.2383 -12987.9629)">
			<stop  offset="0" style="stop-color:#1176A3"/>
			<stop  offset="1" style="stop-color:#52A7DD"/>
		</linearGradient>
		<rect x="9.84" y="42.081" clip-path="url(#SVGID_14_)" fill="url(#SVGID_15_)" width="45.406" height="51.541"/>
	</g>
	<polygon fill="#FFFFFF" points="59.535,44.005 55.759,44.05 55.478,40.13 59.535,40.005 	"/>
</g>
</svg>
