<?xml version="1.0" encoding="utf-8"?>
<!-- Generator: Adobe Illustrator 16.0.0, SVG Export Plug-In . SVG Version: 6.00 Build 0)  -->
<!DOCTYPE svg PUBLIC "-//W3C//DTD SVG 1.1//EN" "http://www.w3.org/Graphics/SVG/1.1/DTD/svg11.dtd">
<svg version="1.1" id="Layer_1" xmlns="http://www.w3.org/2000/svg" xmlns:xlink="http://www.w3.org/1999/xlink" x="0px" y="0px"
	 width="35.061px" height="35.061px" viewBox="0 0 35.061 35.061" enable-background="new 0 0 35.061 35.061" xml:space="preserve">
<g>
	<path fill="#CED6DB" d="M17.531,34.884c-9.569,0-17.354-7.785-17.354-17.354S7.962,0.177,17.531,0.177
		c9.569,0,17.354,7.785,17.354,17.354S27.1,34.884,17.531,34.884z M17.531,3.146C9.599,3.146,3.146,9.6,3.146,17.53
		s6.453,14.384,14.384,14.384s14.384-6.453,14.384-14.384S25.462,3.146,17.531,3.146z"/>
	
		<rect x="9.333" y="18.128" transform="matrix(0.6109 0.7917 -0.7917 0.6109 20.8694 -3.1138)" fill="#CED6DB" width="8.538" height="3.093"/>
	
		<rect x="12.468" y="16.617" transform="matrix(0.7917 -0.6109 0.6109 0.7917 -6.9272 16.0114)" fill="#CED6DB" width="15.097" height="3.093"/>
</g>
</svg>
