<?xml version="1.0" encoding="utf-8"?>
<!-- Generator: Adobe Illustrator 16.0.0, SVG Export Plug-In . SVG Version: 6.00 Build 0)  -->
<!DOCTYPE svg PUBLIC "-//W3C//DTD SVG 1.1//EN" "http://www.w3.org/Graphics/SVG/1.1/DTD/svg11.dtd">
<svg version="1.1" id="Layer_1" xmlns="http://www.w3.org/2000/svg" xmlns:xlink="http://www.w3.org/1999/xlink" x="0px" y="0px"
	 width="1536px" height="1536px" viewBox="128 128 1536 1536" enable-background="new 128 128 1536 1536" xml:space="preserve">
<path fill="#5195EA" d="M1579,128c23.333,0,43.333,8.333,60,25s25,36.667,25,60v1366c0,23.333-8.333,43.333-25,60s-36.667,25-60,25
	h-391v-595h199l30-232h-229V689c0-37.333,7.833-65.333,23.5-84s46.167-28,91.5-28l122-1V369c-42-6-101.333-9-178-9
	c-90.667,0-163.167,26.667-217.5,80C975.167,493.333,948,568.667,948,666v171H748v232h200v595H213c-23.333,0-43.333-8.333-60-25
	s-25-36.667-25-60V213c0-23.333,8.333-43.333,25-60s36.667-25,60-25H1579z"/>
</svg>
