<?xml version="1.0" encoding="utf-8"?>
<!-- Generator: Adobe Illustrator 16.0.0, SVG Export Plug-In . SVG Version: 6.00 Build 0)  -->
<!DOCTYPE svg PUBLIC "-//W3C//DTD SVG 1.1//EN" "http://www.w3.org/Graphics/SVG/1.1/DTD/svg11.dtd">
<svg version="1.1" xmlns="http://www.w3.org/2000/svg" xmlns:xlink="http://www.w3.org/1999/xlink" x="0px" y="0px" width="864px"
	 height="360px" viewBox="0 0 864 360" enable-background="new 0 0 864 360" xml:space="preserve">
<symbol  id="_x33_0_White" viewBox="-353.516 -44.278 707.031 88.557">
	<g>
		<path fill="#FFFFFF" d="M-342.176,33.118c6.569,5.13,14.939,7.65,24.299,7.65c4.859,0,11.699-0.99,15.93-2.16
			c1.08-0.271,1.709-0.45,2.52-0.36c0.09-2.069,0.539-7.739,1.26-13.229c-0.45-0.63-1.8-0.72-2.43-0.18
			c-1.35,6.12-5.4,13.14-18.449,13.14c-13.77,0-25.469-8.729-25.469-27.359c0-18.899,11.969-29.339,26.729-29.339
			c11.609,0,16.739,7.56,18.809,12.87c0.631,0.449,1.98,0.27,2.34-0.36c-0.629-4.68-2.969-10.619-4.319-12.329
			c-1.08-0.181-2.159-0.54-3.149-0.9c-1.98-0.72-8.46-2.069-14.22-2.069c-8.1,0-15.839,1.619-22.409,6.029
			c-7.199,4.95-12.779,13.14-12.779,24.749C-353.516,19.259-349.016,27.809-342.176,33.118z"/>
		<path fill="#FFFFFF" d="M-283.136,2.97c-2.34,0-2.431-0.18-2.431-2.43c0-9.09,5.311-16.829,14.939-16.829
			c2.971,0,5.49,0.899,8.28,4.409c0.899,0.271,1.53-0.27,1.62-1.08c-2.971-6.119-9.449-8.369-14.13-8.369
			c-5.85,0-10.439,2.52-13.05,5.939c-2.699,3.51-3.779,7.74-3.779,11.699c0,11.07,7.289,20.34,18.09,20.34
			c7.739,0,12.779-5.31,12.779-10.71c0-1.26-0.181-1.979-0.36-2.34c-0.271-0.54-1.53-0.63-5.31-0.63H-283.136z M-277.557,5.67
			c6.66,0,8.641,0.359,9.36,0.899c0.27,0.181,0.54,0.54,0.54,1.71c0,2.521-1.711,5.67-6.93,5.67c-5.311,0-9.9-4.859-9.99-7.83
			c0-0.18,0-0.449,0.631-0.449H-277.557z"/>
		<path fill="#FFFFFF" d="M-244.616-9.989c0-6.48,0.18-7.38,3.42-7.83l2.159-0.271c0.631-0.449,0.451-1.979-0.18-2.249
			c-2.97,0.18-5.58,0.27-8.729,0.27c-3.239,0-5.94-0.09-8.64-0.27c-0.63,0.27-0.811,1.8-0.18,2.249l2.07,0.271
			c3.329,0.45,3.419,1.35,3.419,7.83v40.678c0,5.31-0.09,5.85-2.79,7.47l-0.899,0.54c-0.45,0.27-0.45,1.53,0,1.8
			c2.25,0.72,6.479,2.07,9.72,3.78c0.359,0,0.72-0.181,0.9-0.54c-0.091-2.7-0.271-7.2-0.271-11.16V-9.989z"/>
		<path fill="#FFFFFF" d="M-225.267,2.97c-2.34,0-2.431-0.18-2.431-2.43c0-9.09,5.311-16.829,14.939-16.829
			c2.971,0,5.49,0.899,8.28,4.409c0.899,0.271,1.53-0.27,1.62-1.08c-2.971-6.119-9.449-8.369-14.13-8.369
			c-5.85,0-10.439,2.52-13.05,5.939c-2.699,3.51-3.779,7.74-3.779,11.699c0,11.07,7.289,20.34,18.09,20.34
			c7.739,0,12.779-5.31,12.779-10.71c0-1.26-0.181-1.979-0.36-2.34c-0.271-0.54-1.53-0.63-5.31-0.63H-225.267z M-219.688,5.67
			c6.66,0,8.641,0.359,9.36,0.899c0.27,0.181,0.54,0.54,0.54,1.71c0,2.521-1.711,5.67-6.93,5.67c-5.311,0-9.9-4.859-9.99-7.83
			c0-0.18,0-0.449,0.631-0.449H-219.688z"/>
		<path fill="#FFFFFF" d="M-194.577,30.688c0,5.31-0.09,5.85-2.79,7.47l-0.899,0.54c-0.45,0.27-0.45,1.53,0,1.8
			c2.069,0.811,6.39,1.98,9.81,3.78c0.359,0,0.72-0.181,0.9-0.54c-0.181-3.15-0.36-7.2-0.36-11.16V15.569
			c0-1.53,0.36-1.89,0.899-1.89c2.34,1.35,5.939,2.97,10.35,2.97c10.259,0,17.189-7.74,17.189-17.64
			c0-11.97-8.64-20.339-20.699-20.339c-3.33,0-5.85,0.63-7.649,1.17c-1.89,0.63-3.06,1.17-3.78,1.17c-0.72,0-1.439-0.72-1.89-1.35
			c-0.09-0.091-0.18-0.091-0.36-0.091c-0.359,0-0.72,0.181-0.899,0.54c0.09,1.26,0.18,2.97,0.18,7.65V30.688z M-187.917-7.83
			c0-3.149,0.72-5.939,2.249-7.829c1.531-1.891,3.961-2.971,6.84-2.971c8.459,0,11.79,7.2,11.79,14.939
			c0,9.271-4.77,16.47-13.679,16.47c-2.701,0-4.86-0.63-6.121-1.439c-0.899-0.631-1.079-1.62-1.079-5.13V-7.83z"/>
		<path fill="#FFFFFF" d="M-147.507,5.76c0,3.51,0,3.96-2.43,5.58l-0.81,0.539c-0.36,0.36-0.36,1.351,0.09,1.62
			c2.07,0.721,6.839,3.061,9.089,4.41c0.45-0.09,0.72-0.271,0.72-0.63v-5.22c0-0.45,0.09-0.72,0.27-0.811
			c3.15,2.61,6.569,5.4,9.899,5.4c2.25,0,4.05-1.44,4.05-3.6c0-2.971-2.43-4.141-3.87-4.141c-0.9,0-1.35,0.271-1.98,0.63
			c-1.35,0.9-2.7,1.44-3.96,1.44c-1.44,0-2.52-0.811-3.24-1.8c-0.9-1.26-1.17-3.87-1.17-6.93V-9.989c0-6.48,0.18-7.561,3.6-7.83
			l3.24-0.271c0.63-0.449,0.45-1.979-0.18-2.249c-4.23,0.18-6.84,0.27-9.99,0.27c-3.24,0-5.939-0.09-8.28-0.27
			c-0.63,0.27-0.81,1.8-0.18,2.249l1.71,0.271c3.33,0.54,3.42,1.35,3.42,7.83V5.76z"/>
		<path fill="#FFFFFF" d="M-105.119-1.44c1.35,0.45,1.53,1.261,1.53,2.61l0.09,4.14c0.09,3.33-0.99,7.83-6.57,7.83
			c-2.52,0-5.58-1.261-5.76-4.05c-0.09-1.44-0.18-2.521-0.9-3.061c-1.35-1.08-3.78-1.71-5.13-1.71c-0.81,0-1.26,0.45-1.26,1.261
			c0,4.68,10.169,11.069,16.739,11.069c6.479,0,9.629-3.78,9.359-10.53l-0.54-15.659c-0.18-4.14,0.63-7.829,4.14-7.829
			c0.9,0,1.71,0.27,2.25,0.54c0.45,0.27,0.9,0.63,1.17,0.63c0.36,0,0.63-0.54,0.63-1.17c0-0.45-3.15-3.96-7.56-3.96
			c-2.16,0-4.32,0.81-5.85,2.79c-0.36,0.54-0.9,1.26-1.44,1.26c-0.63,0-1.71-0.811-3.51-1.8c-1.98-1.08-3.96-2.25-6.479-2.25
			c-2.61,0-4.77,0.72-6.3,2.069c-1.71,1.53-2.79,3.78-2.79,6.3c0,3.51,1.71,5.58,7.47,7.65L-105.119-1.44z M-110.698-17.279
			c1.8,0,4.59,1.35,5.49,2.25c1.08,1.08,1.08,2.34,1.17,4.229l0.18,5.31c0,0.99-0.36,1.17-0.9,1.17s-2.07-0.359-3.689-0.899
			c-5.31-1.8-7.92-3.15-7.92-6.66C-116.368-13.409-115.288-17.279-110.698-17.279z"/>
		<path fill="#FFFFFF" d="M-73.889,11.609c-1.53,0-1.62-0.27-1.62-2.16V-7.38c0-5.22,0.63-9.989,6.569-9.989
			c0.9,0,1.71,0.18,2.43,0.449c0.81,0.271,1.98,1.261,2.25,1.261c0.72,0,1.08-0.99,0.9-1.53c-1.62-1.89-4.86-4.14-9.45-4.14
			c-7.74,0-9.36,4.319-9.36,9.72V8.999c0,2.431-0.09,2.61-1.89,2.61h-2.52c-0.54,0.36-0.63,1.35-0.27,1.89
			c2.61,0.811,4.86,1.98,5.76,2.79c1.17,1.08,2.88,3.51,3.78,5.31c0.45,0.181,1.53,0.181,1.89-0.449V17.1
			c0-1.62,0.09-1.71,1.62-1.71h9.989c1.08-0.811,0.9-3.24,0.09-3.78H-73.889z"/>
		<path fill="#FFFFFF" d="M-53.639,5.76c0,3.51,0,3.96-2.43,5.58l-0.81,0.539c-0.36,0.36-0.36,1.351,0.09,1.62
			c2.07,0.721,7.2,3.061,9.27,4.41c0.45,0,0.81-0.18,0.9-0.54c-0.18-3.149-0.36-7.47-0.36-11.159V-9.989c0-6.48,0.18-7.38,3.42-7.83
			l1.89-0.271c0.63-0.449,0.45-1.979-0.18-2.249c-2.7,0.18-5.31,0.27-8.46,0.27c-3.24,0-5.939-0.09-8.459-0.27
			c-0.63,0.27-0.81,1.8-0.18,2.249l1.89,0.271c3.33,0.45,3.42,1.35,3.42,7.83V5.76z M-46.169,31.408c0-3.239-2.25-4.68-4.77-4.68
			c-2.79,0-4.59,2.07-4.59,4.5c0,2.97,2.16,4.86,4.86,4.86S-46.169,33.929-46.169,31.408z"/>
		<path fill="#FFFFFF" d="M-30.51,5.76c0,3.51,0,3.96-2.43,5.58l-0.81,0.539c-0.36,0.36-0.36,1.351,0.09,1.62
			c2.07,0.721,7.2,3.061,9,4.41c0.36,0,0.81-0.18,0.99-0.63c-0.18-2.07-0.18-3.42-0.18-4.229c0-0.54,0.36-0.99,0.99-0.99
			c3.78,2.34,8.01,4.59,12.599,4.59c7.47,0,10.53-5.13,10.53-11.16V-9.989c0-6.48,0.18-7.38,3.42-7.83l1.979-0.271
			c0.63-0.449,0.45-1.979-0.18-2.249c-2.7,0.18-5.31,0.27-8.46,0.27c-3.24,0-5.939-0.09-8.369-0.27
			c-0.631,0.27-0.811,1.8-0.181,2.249l1.71,0.271c3.33,0.54,3.42,1.35,3.42,7.83V3.42c0,5.13-2.34,8.909-8.459,8.909
			c-3.42,0-6.391-1.439-7.65-3.149c-1.17-1.53-1.35-2.79-1.35-5.4V-9.989c0-6.48,0.18-7.29,3.42-7.83l1.62-0.271
			c0.63-0.449,0.449-1.979-0.181-2.249c-2.43,0.18-5.04,0.27-8.189,0.27c-3.24,0-5.939-0.09-8.459-0.27
			c-0.63,0.27-0.81,1.8-0.18,2.249l1.89,0.271c3.33,0.45,3.42,1.35,3.42,7.83V5.76z"/>
		<path fill="#FFFFFF" d="M48.058,13.409c0.989-0.45,0.81-3.51-0.54-3.689h-6.479c0.18-1.53,0.18-3.061,0.18-4.59
			c0-6.21-3.69-14.31-15.119-14.31c-1.62,0-2.88,0.18-3.96,0.27c-1.08-0.63-3.96-2.34-3.96-4.949c0-2.07,2.069-3.78,6.3-3.78
			c3.06,0,6.749,0.271,10.709,0.271c5.04,0,12.6-0.9,12.6-9.899c0-9.811-10.709-17.01-22.409-17.01
			c-11.069,0-14.939,5.939-14.939,10.439c0,1.44,0.36,2.61,0.99,3.33c1.53,1.62,4.05,3.96,6.12,6.029
			c0.81,0.811,1.529,1.62,0.72,2.16c-3.51,0.9-6.569,3.96-6.569,7.109c0,0.45,0.359,0.811,1.35,1.53c1.53,0.99,3.24,2.52,4.77,4.14
			c0.45,0.54,0.9,1.26,0.9,1.71c-3.061,1.62-6.75,5.13-6.75,10.89c0,7.74,6.66,13.59,14.669,13.59c3.42,0,6.57-0.9,8.641-1.8
			c2.879-1.261,3.51-1.44,5.489-1.44H48.058z M29.248-22.949c-2.88,0-6.479-0.18-7.739-0.99c-2.16-1.35-4.32-4.14-4.32-7.56
			c0-4.859,3.87-8.909,12.06-8.909c8.01,0,13.319,4.499,13.319,9.629c0,5.49-3.779,7.83-10.26,7.83H29.248z M34.828,2.79
			c0,6.119-2.521,11.249-8.01,11.249c-4.32,0-7.56-3.96-7.56-10.079c0-6.39,3.869-10.53,8.189-10.53
			C32.308-6.57,34.828-2.7,34.828,2.79z"/>
		<path fill="#FFFFFF" d="M74.248-19.529c0,1.8,1.351,3.51,3.511,3.51c2.159,0,3.329-1.8,4.319-3.24
			c1.17-1.71,2.25-2.699,4.77-2.699c5.85,0,16.109,7.649,16.109,17.639c0,7.92-3.779,14.67-11.609,14.67
			c-4.41,0-7.649-2.16-9.72-4.41c-1.439,0.18-2.52,1.44-1.979,3.15c3.42,1.529,10.8,4.859,14.399,7.829
			c1.979,1.62,4.77,4.32,4.77,8.64c0,4.771-3.33,7.74-7.38,7.74c-5.31,0-9.359-3.33-12.149-7.92c-0.899-0.18-1.89,0.36-1.89,1.26
			c2.79,6.3,9.359,10.89,16.289,10.89c7.38,0,12.51-3.96,12.51-10.35c0-3.689-1.44-7.199-9.63-11.52c-0.45-0.9,0-1.26,1.08-1.35
			c6.84-0.54,13.05-5.311,13.05-13.859c0-6.48-3.15-12.96-8.729-17.819c-6.66-5.85-14.399-7.74-18.81-7.74
			C79.108-25.109,74.248-23.759,74.248-19.529z"/>
		<path fill="#FFFFFF" d="M156.687,8.1c0-14.13-5.489-29.429-18.629-29.429S119.429-6.03,119.429,8.1
			c0,13.589,5.489,29.429,18.629,29.429S156.687,21.688,156.687,8.1z M127.438,8.1c0-8.46,0.72-26.729,10.619-26.729
			S148.677-0.36,148.677,8.1s-0.72,26.729-10.619,26.729S127.438,16.56,127.438,8.1z"/>
		<path fill="#FFFFFF" d="M211.948-6.39c0-9.63,0.539-11.069,5.399-11.43l3.42-0.271c0.54-0.54,0.359-1.979-0.181-2.249
			c-5.579,0.18-8.64,0.27-12.239,0.27c-3.779,0-7.02-0.09-11.789-0.27c-0.54,0.27-0.72,1.709-0.181,2.249l2.79,0.271
			c5.22,0.54,5.4,1.8,5.4,11.43v4.59c0,4.949-0.271,6.119-2.88,11.159l-10.62,20.699c-3.06,5.939-4.409,6.39-7.109,6.84l-2.52,0.45
			c-0.54,0.63-0.45,1.89,0.18,2.25c2.88-0.181,6.119-0.271,10.439-0.271c4.14,0,7.38,0.09,9.63,0.271
			c0.81-0.271,0.81-1.71,0.27-2.25l-1.17-0.181c-3.149-0.449-3.779-0.899-3.779-1.619c0-0.9,2.34-6.03,2.789-6.93
			c3.33-6.66,6.66-13.77,10.17-19.979c2.79,4.77,5.76,9.989,8.46,15.209c2.52,4.68,5.85,10.8,5.85,11.88
			c0,0.54-1.62,1.17-3.78,1.439l-1.619,0.181c-0.631,0.63-0.54,1.89,0.18,2.25c3.239-0.181,5.85-0.271,8.64-0.271
			s5.31,0.09,8.369,0.271c0.721-0.45,0.811-1.71,0.181-2.25l-2.521-0.45c-4.68-0.81-7.38-6.479-11.879-14.22l-5.67-9.81
			c-3.96-6.84-4.229-7.649-4.229-14.579V-6.39z"/>
		<path fill="#FFFFFF" d="M236.968,2.97c-2.34,0-2.43-0.18-2.43-2.43c0-9.09,5.31-16.829,14.939-16.829
			c2.97,0,5.49,0.899,8.279,4.409c0.9,0.271,1.53-0.27,1.62-1.08c-2.97-6.119-9.449-8.369-14.129-8.369
			c-5.85,0-10.439,2.52-13.05,5.939c-2.7,3.51-3.78,7.74-3.78,11.699c0,11.07,7.29,20.34,18.09,20.34
			c7.739,0,12.779-5.31,12.779-10.71c0-1.26-0.18-1.979-0.36-2.34c-0.27-0.54-1.529-0.63-5.31-0.63H236.968z M242.548,5.67
			c6.66,0,8.64,0.359,9.359,0.899c0.271,0.181,0.54,0.54,0.54,1.71c0,2.521-1.71,5.67-6.93,5.67c-5.31,0-9.899-4.859-9.989-7.83
			c0-0.18,0-0.449,0.63-0.449H242.548z"/>
		<path fill="#FFFFFF" d="M282.237-1.44c1.35,0.45,1.53,1.261,1.53,2.61l0.09,4.14c0.09,3.33-0.99,7.83-6.57,7.83
			c-2.52,0-5.579-1.261-5.76-4.05c-0.09-1.44-0.18-2.521-0.899-3.061c-1.35-1.08-3.78-1.71-5.13-1.71c-0.81,0-1.26,0.45-1.26,1.261
			c0,4.68,10.169,11.069,16.739,11.069c6.479,0,9.63-3.78,9.359-10.53l-0.54-15.659c-0.18-4.14,0.63-7.829,4.14-7.829
			c0.9,0,1.71,0.27,2.25,0.54c0.45,0.27,0.9,0.63,1.17,0.63c0.36,0,0.63-0.54,0.63-1.17c0-0.45-3.149-3.96-7.56-3.96
			c-2.16,0-4.319,0.81-5.85,2.79c-0.36,0.54-0.899,1.26-1.439,1.26c-0.631,0-1.71-0.811-3.51-1.8c-1.98-1.08-3.96-2.25-6.48-2.25
			c-2.609,0-4.77,0.72-6.3,2.069c-1.71,1.53-2.79,3.78-2.79,6.3c0,3.51,1.71,5.58,7.47,7.65L282.237-1.44z M276.657-17.279
			c1.8,0,4.59,1.35,5.49,2.25c1.08,1.08,1.08,2.34,1.17,4.229l0.18,5.31c0,0.99-0.359,1.17-0.899,1.17s-2.07-0.359-3.69-0.899
			c-5.31-1.8-7.92-3.15-7.92-6.66C270.987-13.409,272.067-17.279,276.657-17.279z"/>
		<path fill="#FFFFFF" d="M306.087,5.76c0,3.51,0,3.96-2.43,5.58l-0.81,0.539c-0.36,0.36-0.36,1.351,0.09,1.62
			c2.069,0.721,6.84,3.061,9.09,4.41c0.449-0.09,0.72-0.271,0.72-0.63v-5.22c0-0.45,0.09-0.72,0.27-0.811
			c3.15,2.61,6.57,5.4,9.9,5.4c2.249,0,4.05-1.44,4.05-3.6c0-2.971-2.431-4.141-3.87-4.141c-0.9,0-1.35,0.271-1.98,0.63
			c-1.35,0.9-2.699,1.44-3.959,1.44c-1.44,0-2.521-0.811-3.24-1.8c-0.9-1.26-1.17-3.87-1.17-6.93V-9.989c0-6.48,0.18-7.561,3.6-7.83
			l3.24-0.271c0.63-0.449,0.45-1.979-0.181-2.249c-4.229,0.18-6.839,0.27-9.989,0.27c-3.24,0-5.939-0.09-8.279-0.27
			c-0.63,0.27-0.811,1.8-0.181,2.249l1.71,0.271c3.33,0.54,3.42,1.35,3.42,7.83V5.76z"/>
		<path fill="#FFFFFF" d="M351.806,15.029c0.81-1.979,1.439-4.86,1.439-7.29c-0.359-0.63-1.71-0.81-2.159-0.27
			c-1.53,3.96-4.23,6.569-7.92,6.569c-3.51,0-5.76-2.25-5.76-5.489c0-3.69,3.779-5.67,6.93-7.47c4.77-2.7,9.18-5.76,9.18-12.149
			c0-6.84-6.3-10.26-12.96-10.26c-4.229,0-7.38,0.899-9.629,2.699c-0.721,1.71-1.261,6.12-1.08,9.09
			c0.449,0.54,1.619,0.63,2.069,0.09c1.53-4.949,4.41-9.27,9.54-9.27c3.239,0,6.029,1.891,6.029,5.76c0,4.141-3.6,6.39-6.93,8.28
			c-5.22,2.97-8.909,6.119-8.909,11.069c0,6.569,5.399,10.26,12.239,10.26C347.666,16.649,350.995,15.749,351.806,15.029z"/>
	</g>
</symbol>
<g id="Banner" display="none">
</g>
<g id="Celebrating" display="none">
</g>
<g id="Original_Logo" display="none">
	<g id="URL_2_">
		<g display="inline">
			<path fill="#231F20" d="M2872.421,645.471l7.689,15.564c1.945,3.885,4,8.18,5.914,12.607l0.164-0.047
				c-0.434-4.826-0.537-9.744-0.629-13.961l-0.232-17.686l9.863-2.693l8.4,14.932c2.303,4.232,4.605,8.461,6.684,12.84l0.164-0.047
				c-0.682-4.762-1.092-9.504-1.445-14.354l-0.898-16.891l12.25-3.344l-1.363,43.562l-11.756,3.207l-7.637-13.105
				c-2.064-3.678-3.77-7.012-5.959-11.799l-0.164,0.043c0.629,5.215,0.838,9.221,0.779,13.213l-0.172,15.238l-11.754,3.203
				l-22.639-37.01L2872.421,645.471z"/>
		</g>
		<g display="inline">
			<path fill="#231F20" d="M2940.192,627.682l7.08,15.854c1.791,3.959,3.678,8.332,5.418,12.826l0.166-0.039
				c-0.246-4.84-0.16-9.758-0.086-13.971l0.455-17.684l9.961-2.307l7.814,15.244c2.137,4.316,4.271,8.635,6.176,13.09l0.166-0.039
				c-0.494-4.781-0.719-9.541-0.883-14.404l-0.24-16.906l12.369-2.865l-3.059,43.477l-11.869,2.744l-7.123-13.395
				c-1.918-3.752-3.49-7.148-5.494-12.018l-0.166,0.039c0.424,5.232,0.479,9.246,0.264,13.232l-0.764,15.217l-11.869,2.748
				l-21.184-37.865L2940.192,627.682z"/>
		</g>
		<g display="inline">
			<path fill="#231F20" d="M3008.431,612.522l6.5,16.102c1.646,4.02,3.373,8.459,4.949,13.012l0.166-0.029
				c-0.07-4.848,0.195-9.758,0.422-13.969l1.098-17.656l10.037-1.943l7.258,15.52c1.975,4.391,3.953,8.781,5.697,13.305l0.166-0.031
				c-0.32-4.799-0.375-9.562-0.361-14.426l0.373-16.908l12.465-2.41l-4.633,43.334l-11.963,2.318l-6.631-13.648
				c-1.781-3.818-3.23-7.271-5.053-12.213l-0.168,0.033c0.234,5.246,0.143,9.258-0.217,13.232l-1.314,15.18l-11.963,2.318
				l-19.795-38.609L3008.431,612.522z"/>
		</g>
		<g display="inline">
			<path fill="#231F20" d="M3075.825,643.344c-4.285,0.734-7.953-2.01-8.715-6.459c-0.775-4.535,1.77-8.344,6.221-9.104
				c4.451-0.762,8.021,1.908,8.812,6.529c0.762,4.449-1.699,8.242-6.234,9.02L3075.825,643.344z"/>
		</g>
		<g display="inline">
			<path fill="#231F20" d="M3088.845,611.868c-0.945-6.062-1.729-9.992-2.447-13.504l11.027-1.715l1.604,7.512l0.336-0.051
				c1.172-6.311,5.83-9.617,9.787-10.238c1.18-0.182,1.77-0.273,2.723-0.252l1.887,12.123c-0.965-0.105-2.086-0.105-3.516,0.119
				c-4.715,0.736-7.521,3.758-7.748,7.848c-0.037,0.867,0.037,1.889,0.193,2.9l3.254,20.883l-12.797,1.992L3088.845,611.868z"/>
		</g>
		<g display="inline">
			<path fill="#231F20" d="M3134.206,616.452c1.139,5.264,6.715,7.094,12.711,6.285c4.391-0.594,7.859-1.662,11.172-3.225
				l2.861,8.471c-3.994,2.258-9.021,3.881-14.594,4.629c-14.018,1.889-23.143-5.219-24.885-18.139
				c-1.41-10.475,3.533-22.92,17.889-24.854c13.342-1.793,19.809,7.908,21.184,18.123c0.295,2.199,0.303,4.172,0.26,5.125
				L3134.206,616.452z M3148.138,605.633c-0.42-3.123-2.477-8.176-8.389-7.383c-5.404,0.73-6.939,5.924-6.811,9.43L3148.138,605.633
				z"/>
		</g>
		<g display="inline">
			<path fill="#231F20" d="M3180.483,573.817c0.41,3.557-1.965,6.746-6.197,7.236c-4.062,0.471-7.105-2.094-7.432-5.656
				c-0.516-3.719,1.869-6.824,6.018-7.299C3177.019,567.612,3179.966,570.102,3180.483,573.817z M3173.317,628.258l-4.791-41.393
				l12.865-1.488l4.789,41.389L3173.317,628.258z"/>
		</g>
		<g display="inline">
			<path fill="#231F20" d="M3233.087,561.264l4.553,47.84c0.445,4.664,1.082,9.568,1.52,12.354l-11.449,1.092l-1.178-6.053
				l-0.17,0.014c-2.184,4.92-6.963,7.77-12.307,8.275c-9.838,0.939-18.527-6.707-19.754-19.598
				c-1.42-13.99,6.551-22.881,16.477-23.826c5.09-0.482,9.244,0.918,11.385,3.625l0.172-0.018l-2.141-22.475L3233.087,561.264z
				 M3223.649,598.795c-0.064-0.678-0.238-1.602-0.387-2.271c-1.094-3.406-4.168-6.021-8.154-5.643
				c-5.854,0.557-8.406,6.105-7.783,12.637c0.668,7.041,4.566,11.119,9.91,10.611c3.732-0.355,6.459-3.184,6.873-6.902
				c0.168-0.959,0.164-1.896,0.059-3.004L3223.649,598.795z"/>
		</g>
		<g display="inline">
			<path fill="#231F20" d="M3247.224,560.114l12.922-0.871l1.596,23.717l0.172-0.008c2.225-3.736,6.406-6.322,12.184-6.715
				c9.947-0.668,17.814,7.084,18.588,19.846c1.008,14.963-8.012,23.084-17.531,23.723c-4.848,0.324-9.643-1.145-12.949-5.875
				l-0.168,0.012l-0.123,5.814l-10.967,0.74c-0.014-2.732-0.182-7.758-0.496-12.436L3247.224,560.114z M3263.019,601.92
				c0.057,0.85,0.191,1.611,0.41,2.277c1.084,3.428,4.236,5.863,7.977,5.611c5.527-0.369,8.639-4.85,8.137-12.33
				c-0.434-6.461-3.67-11.369-9.705-10.959c-3.484,0.23-6.539,3.082-7.137,6.881c-0.117,0.779-0.152,1.551-0.096,2.398
				L3263.019,601.92z"/>
		</g>
		<g display="inline">
			<path fill="#231F20" d="M3342.995,602.176c0.213,5.449,0.559,9.871,0.867,13.352l-11.238,0.443l-0.83-5.852l-0.254,0.012
				c-1.518,2.615-5.266,7.027-12.758,7.32c-8.43,0.334-14.852-4.699-15.357-17.553l-0.963-24.436l13.025-0.514l0.883,22.389
				c0.238,6.047,2.34,9.629,6.852,9.453c3.576-0.141,5.521-2.691,6.295-4.768c0.309-0.777,0.354-1.805,0.314-2.824l-0.977-24.777
				l13.025-0.514L3342.995,602.176z"/>
		</g>
		<g display="inline">
			<path fill="#231F20" d="M3368.421,561.829c0.068,3.576-2.607,6.523-6.865,6.598c-4.088,0.082-6.869-2.77-6.85-6.346
				c-0.154-3.75,2.52-6.607,6.693-6.688C3365.573,555.315,3368.265,558.081,3368.421,561.829z M3356.03,615.315l-0.77-41.654
				l12.947-0.242l0.773,41.66L3356.03,615.315z"/>
		</g>
		<g display="inline">
			<path fill="#231F20" d="M3381.224,554.436l12.949-0.061l0.281,60.496l-12.951,0.061L3381.224,554.436z"/>
		</g>
		<g display="inline">
			<path fill="#231F20" d="M3422.192,562.059l-0.129,11.334l9.287,0.105l-0.111,9.541l-9.287-0.105l-0.174,15.078
				c-0.059,5.027,1.105,7.344,5.023,7.385c1.793,0.021,2.559-0.053,3.84-0.297l-0.031,9.801c-1.711,0.66-4.783,1.141-8.443,1.092
				c-4.18-0.045-7.656-1.617-9.67-3.773c-2.361-2.498-3.506-6.516-3.436-12.396l0.197-17.039l-5.541-0.064l0.115-9.541l5.535,0.064
				l0.094-7.838L3422.192,562.059z"/>
		</g>
		<g display="inline">
			<path fill="#231F20" d="M3442.663,554.852l12.941,0.457l-0.844,23.758l0.17,0.008c1.428-1.74,3.18-3.129,5.26-4.08
				c1.996-0.949,4.4-1.461,6.787-1.377c8.262,0.295,14.359,6.225,13.912,18.744l-0.865,24.35l-12.943-0.457l0.814-22.908
				c0.193-5.449-1.551-9.264-6.4-9.434c-3.406-0.123-5.609,2.018-6.631,4.279c-0.373,0.842-0.498,1.943-0.527,2.883l-0.879,24.693
				l-12.939-0.461L3442.663,554.852z"/>
		</g>
		<g display="inline">
			<path fill="#231F20" d="M3534.968,598.756c-0.99,15.221-12.242,21.49-23.383,20.768c-12.158-0.793-20.99-9.393-20.117-22.824
				c0.875-13.436,10.277-21.447,23.625-20.58C3527.845,576.946,3535.776,586.258,3534.968,598.756z M3504.837,597.227
				c-0.463,7.141,2.168,12.693,7.691,13.049c5.018,0.326,8.574-4.48,9.062-11.959c0.398-6.207-1.568-12.654-7.436-13.035
				C3507.95,584.875,3505.237,591.106,3504.837,597.227z"/>
		</g>
		<g display="inline">
			<path fill="#231F20" d="M3546.604,592.45c0.525-5.168,0.807-9.596,1.008-13.256l10.855,1.109l0.018,5.656l0.256,0.021
				c2.047-2.443,6.088-5.969,13.215-5.242c5.338,0.547,9.299,3.693,10.639,8.195l0.166,0.018c1.748-2.049,3.785-3.467,5.852-4.457
				c2.428-1.121,5.043-1.539,8.094-1.229c7.963,0.814,13.41,7.025,12.146,19.4l-2.49,24.41l-12.549-1.281l2.303-22.545
				c0.617-6.018-0.977-9.691-5.133-10.119c-2.965-0.301-5.293,1.516-6.393,3.887c-0.436,0.896-0.738,2.236-0.846,3.254l-2.473,24.24
				l-12.547-1.279l2.373-23.225c0.533-5.256-0.969-9.006-5.035-9.422c-3.305-0.338-5.516,2.004-6.492,4.047
				c-0.525,0.975-0.734,2.152-0.838,3.166l-2.473,24.16l-12.543-1.283L3546.604,592.45z"/>
		</g>
		<g display="inline">
			<path fill="#231F20" d="M3630.837,613.655c-0.32,5.375,4.561,8.633,10.551,9.469c4.387,0.609,8.014,0.514,11.629-0.102
				l0.475,8.928c-4.453,1.1-9.732,1.312-15.301,0.537c-14.008-1.951-20.885-11.254-19.09-24.168
				c1.457-10.465,9.566-21.121,23.914-19.121c13.336,1.857,16.953,12.941,15.533,23.154c-0.309,2.193-0.834,4.1-1.131,5.002
				L3630.837,613.655z M3647.163,606.979c0.438-3.121-0.186-8.541-6.094-9.365c-5.402-0.752-8.279,3.838-9.096,7.252
				L3647.163,606.979z"/>
		</g>
		<g display="inline">
			<path fill="#231F20" d="M3667.054,624.338c2.113,1.818,6.713,4.311,10.492,4.939c3.871,0.641,5.688-0.438,6.037-2.541
				c0.35-2.1-0.744-3.316-5.27-5.711c-8.018-4.27-10.525-9.438-9.645-14.213c1.285-7.732,8.807-12.443,18.973-10.752
				c4.791,0.795,8.898,2.598,11.208,4.281l-3.731,8.447c-1.685-1.314-4.99-3.248-8.52-3.836c-3.111-0.516-5.088,0.453-5.432,2.553
				c-0.326,1.934,1.105,3.211,5.857,5.814c7.367,3.986,9.989,8.479,9.066,14.545c-1.266,7.652-8.268,12.361-20.035,10.404
				c-5.383-0.893-9.963-2.951-12.793-5.146L3667.054,624.338z"/>
		</g>
		<g display="inline">
			<path fill="#231F20" d="M3709.3,644.104c-4.269-0.797-6.764-4.639-5.938-9.08c0.837-4.52,4.547-7.211,8.984-6.387
				c4.443,0.822,6.863,4.568,6.008,9.176c-0.824,4.439-4.447,7.145-8.971,6.309L3709.3,644.104z"/>
		</g>
		<g display="inline">
			<path fill="#231F20" d="M3757.685,651.786c-2.461,0.535-6.906,0.576-11.742-0.428c-13.188-2.727-19.941-12.562-17.281-25.41
				c2.467-11.932,12.662-20.006,27.846-16.865c3.34,0.691,6.891,2.035,9.355,3.586l-3.957,9.014
				c-1.361-0.975-3.492-2.025-6.83-2.715c-6.678-1.381-11.998,2.477-13.297,9.172c-1.549,7.512,2.645,12.467,8.814,13.74
				c3.01,0.623,5.445,0.605,7.535,0.166L3757.685,651.786z"/>
		</g>
		<g display="inline">
			<path fill="#231F20" d="M3810.612,643.319c-3.512,14.842-15.652,19.148-26.511,16.58c-11.858-2.807-19.134-12.762-16.035-25.861
				c3.097-13.102,13.704-19.436,26.724-16.354C3807.229,620.627,3813.499,631.131,3810.612,643.319z M3781.161,636.788
				c-1.644,6.963,0.02,12.875,5.41,14.15c4.891,1.156,9.199-2.988,10.928-10.283c1.432-6.059,0.561-12.74-5.158-14.096
				C3786.286,625.125,3782.575,630.817,3781.161,636.788z"/>
		</g>
		<g display="inline">
			<path fill="#231F20" d="M3823.263,639.077c1.398-5.006,2.434-9.316,3.255-12.893l10.505,2.941l-0.941,5.578l0.244,0.066
				c2.438-2.059,7.021-4.848,13.912-2.916c5.172,1.447,8.539,5.223,9.086,9.889l0.168,0.049c2.072-1.721,4.314-2.775,6.521-3.393
				c2.585-0.691,5.229-0.662,8.186,0.168c7.711,2.158,12.018,9.205,8.664,21.184l-6.619,23.633l-12.143-3.404l6.113-21.824
				c1.631-5.826,0.689-9.717-3.334-10.844c-2.871-0.803-5.475,0.59-6.959,2.738c-0.582,0.814-1.115,2.08-1.391,3.062l-6.572,23.469
				l-12.144-3.402l6.296-22.482c1.424-5.088,0.588-9.037-3.352-10.145c-3.199-0.893-5.777,1.039-7.088,2.881
				c-0.689,0.871-1.094,1.996-1.37,2.984l-6.548,23.383l-12.141-3.402L3823.263,639.077z"/>
		</g>
	</g>
</g>
<g id="BW_version">
	<g>
		<polygon fill-rule="evenodd" clip-rule="evenodd" fill="#3A3A3A" points="717.857,141.667 740.329,141.667 740.329,130.333 
			717.857,130.333 717.857,141.667 		"/>
		<path fill-rule="evenodd" clip-rule="evenodd" fill="#3A3A3A" d="M689.712,130.283c0.591,1.174-0.585,1.761-1.365,1.955
			c-11.335-0.781-37.816,2.767-49.54,1.402v3.908c6.448,0.779,31.953-1.596,36.445,2.703c5.864-0.197,11.727-0.49,16.806,1.465
			l22.476-0.1v-11.334H689.712L689.712,130.283L689.712,130.283z"/>
		<polygon fill-rule="evenodd" clip-rule="evenodd" fill="#3A3A3A" points="123.667,141.667 146.142,141.667 146.142,130.333 
			123.667,130.333 123.667,141.667 		"/>
		<path fill-rule="evenodd" clip-rule="evenodd" fill="#3A3A3A" d="M174.283,130.283c-0.587,1.171,0.586,1.759,1.368,1.955
			c11.335-0.784,20.713,3.468,32.441,2.099v3.42c-6.451,0.782-14.854-1.807-19.348,2.49c-5.866-0.194-11.728-0.487-16.807,1.469
			l-22.473-0.1v-11.333H174.283L174.283,130.283L174.283,130.283z"/>
	</g>
	<g>
		<polygon fill-rule="evenodd" clip-rule="evenodd" fill="#3A3A3A" points="704.859,144.946 704.764,157.454 726.847,157.454 
			726.847,145.046 704.859,144.946 704.859,144.946 		"/>
		<polygon fill-rule="evenodd" clip-rule="evenodd" fill="#3A3A3A" points="689.861,145.021 689.861,157.479 701.344,157.479 
			701.245,144.922 689.861,145.021 689.861,145.021 		"/>
		<polygon fill-rule="evenodd" clip-rule="evenodd" fill="#3A3A3A" points="729.585,144.923 729.585,157.381 740.329,157.478 
			740.284,144.923 729.585,144.923 729.585,144.923 		"/>
		<polygon fill-rule="evenodd" clip-rule="evenodd" fill="#3A3A3A" points="159.137,144.971 159.236,157.479 137.154,157.479 
			137.154,144.922 159.137,144.971 159.137,144.971 		"/>
		<polygon fill-rule="evenodd" clip-rule="evenodd" fill="#3A3A3A" points="174.138,145.019 174.138,157.479 162.657,157.479 
			162.754,144.922 174.138,145.019 174.138,145.019 		"/>
		<polygon fill-rule="evenodd" clip-rule="evenodd" fill="#3A3A3A" points="134.417,144.922 134.417,157.381 123.667,157.479 
			123.717,144.922 134.417,144.922 134.417,144.922 		"/>
	</g>
	<g>
		<polygon fill-rule="evenodd" clip-rule="evenodd" fill="#3A3A3A" points="704.846,205.699 704.892,218.351 726.979,218.351 
			726.979,205.649 704.846,205.699 704.846,205.699 		"/>
		<polygon fill-rule="evenodd" clip-rule="evenodd" fill="#3A3A3A" points="689.848,205.771 689.848,218.085 701.181,218.229 
			701.227,205.823 689.848,205.771 689.848,205.771 		"/>
		<polygon fill-rule="evenodd" clip-rule="evenodd" fill="#3A3A3A" points="729.714,205.722 729.714,218.178 740.31,218.278 
			740.411,205.722 729.714,205.722 729.714,205.722 		"/>
		<polygon fill-rule="evenodd" clip-rule="evenodd" fill="#3A3A3A" points="159.153,205.674 159.106,218.326 137.021,218.326 
			137.021,205.676 159.153,205.674 159.153,205.674 		"/>
		<polygon fill-rule="evenodd" clip-rule="evenodd" fill="#3A3A3A" points="174.154,205.702 174.154,218.353 162.817,218.353 
			162.769,205.7 174.154,205.647 174.154,205.647 		"/>
		<polygon fill-rule="evenodd" clip-rule="evenodd" fill="#3A3A3A" points="134.284,205.722 134.284,218.182 123.716,218.278 
			123.716,205.722 134.284,205.722 134.284,205.722 		"/>
	</g>
	<g>
		<polygon fill-rule="evenodd" clip-rule="evenodd" fill="#3A3A3A" points="704.846,175.296 704.892,187.952 726.979,187.952 
			726.979,175.249 704.846,175.296 704.846,175.296 		"/>
		<polygon fill-rule="evenodd" clip-rule="evenodd" fill="#3A3A3A" points="689.848,175.493 689.848,187.805 701.181,187.952 
			701.227,175.249 689.848,175.493 689.848,175.493 		"/>
		<polygon fill-rule="evenodd" clip-rule="evenodd" fill="#3A3A3A" points="729.714,175.249 729.714,187.708 740.31,187.952 
			740.411,175.249 729.714,175.249 729.714,175.249 		"/>
		<polygon fill-rule="evenodd" clip-rule="evenodd" fill="#3A3A3A" points="159.153,175.297 159.106,187.951 137.021,187.951 
			137.021,175.249 159.153,175.297 159.153,175.297 		"/>
		<polygon fill-rule="evenodd" clip-rule="evenodd" fill="#3A3A3A" points="174.154,175.493 174.154,187.804 162.817,187.952 
			162.769,175.249 174.154,175.493 174.154,175.493 		"/>
		<polygon fill-rule="evenodd" clip-rule="evenodd" fill="#3A3A3A" points="134.284,175.249 134.284,187.708 123.687,187.951 
			123.589,175.249 134.284,175.249 134.284,175.249 		"/>
	</g>
	<g>
		<polygon fill-rule="evenodd" clip-rule="evenodd" fill="#3A3A3A" points="689.812,160.415 689.861,172.385 714.143,172.385 
			714.19,160.415 689.812,160.415 689.812,160.415 		"/>
		<polygon fill-rule="evenodd" clip-rule="evenodd" fill="#3A3A3A" points="717.465,172.142 740.284,172.385 740.329,160.612 
			717.563,160.415 717.465,172.142 717.465,172.142 		"/>
		<polygon fill-rule="evenodd" clip-rule="evenodd" fill="#3A3A3A" points="174.037,160.415 174.138,172.385 149.855,172.385 
			149.806,160.415 174.037,160.415 174.037,160.415 		"/>
		<polygon fill-rule="evenodd" clip-rule="evenodd" fill="#3A3A3A" points="146.532,172.141 123.717,172.385 123.667,160.609 
			146.436,160.415 146.532,172.141 146.532,172.141 		"/>
	</g>
	<g>
		<polygon fill-rule="evenodd" clip-rule="evenodd" fill="#3A3A3A" points="717.857,203.152 740.235,203.152 740.284,190.447 
			717.857,190.447 717.857,203.152 717.857,203.152 		"/>
		<path fill-rule="evenodd" clip-rule="evenodd" fill="#3A3A3A" d="M690.303,190.253c-3.521,6.058-14.657,0-19.738,5.277
			l-26.894,0.023l0.345,5.167l31.63-0.108c5.078,0.193,11.727-0.977,14.657,2.734h23.448v-13.094H690.303L690.303,190.253
			L690.303,190.253z"/>
		<polygon fill-rule="evenodd" clip-rule="evenodd" fill="#3A3A3A" points="146.142,203.15 123.769,203.15 123.717,190.449 
			146.142,190.449 146.142,203.15 146.142,203.15 		"/>
		<path fill-rule="evenodd" clip-rule="evenodd" fill="#3A3A3A" d="M173.696,190.253c3.519,6.057,14.657,0,19.738,5.274h14.658
			v3.421l-19.739,1.662c-5.081,0.196-11.726-0.976-14.657,2.736h-23.449v-13.094H173.696L173.696,190.253L173.696,190.253z"/>
	</g>
	<polygon fill-rule="evenodd" clip-rule="evenodd" fill="#3A3A3A" points="720.156,233.636 740.336,233.636 740.43,220.935 
		720.156,220.935 	"/>
	<path fill-rule="evenodd" clip-rule="evenodd" fill="#3A3A3A" d="M146.633,220.935c0,0-0.243,8.207-0.049,12.311H123.82
		l-0.052-12.311H146.633L146.633,220.935L146.633,220.935z"/>
	<path fill-rule="evenodd" clip-rule="evenodd" fill="#3A3A3A" d="M740.463,255.641v-1.107v-15.564l-30.248,0l-0.11-6.018h5.718
		l0.015-11.92l-25.938-0.232l-0.127,12.152h-8.264l0.003,7.338c0,0-0.032-0.007-0.057-0.013
		c-2.393-0.557-121.783-28.198-247.79-28.198c-119.165,0-249.569,32.169-249.571,32.17l0.003-11.161h-9.893l0.002-12.152h-24.684
		v12.152h5.809l0.002,5.658l-31.564,0.001l0.007,19.075c-59.934,17.434-57.388,17.06-91.681,28.672l3.85-1.054
		c87.824-24.823,147.97-33.968,147.97-33.968c0.575-0.11,1.15-0.221,1.725-0.331c55.457-10.624,150.907-27.341,245.678-26.995
		c111.193,0.407,220.499,18.918,250.139,23.988c0.39,0.067,61.833,13.188,145.232,37.003l0,0
		C792.166,272.64,740.463,255.641,740.463,255.641z"/>
	<path fill-rule="evenodd" clip-rule="evenodd" fill="#3A3A3A" d="M667.97,93.655c0.703,0.427,0.753,1.597,0.753,1.597
		s0.55,17.917-0.728,17.491c-5.218-1.739-6.196-3.633-6.196-3.633c-0.856-3.842-0.272-8.021-3.933-10.693
		c-2.96-2.16-7.197-5.015-14.455-7.972c0,0-4.957-1.656-6.674-0.481c-1.45,0.993-1.727,5.87-1.727,5.87l0.045,76.938
		c-0.081,3.402,0.016,0.99-0.106,3.976c-0.252,6.164,0.312,6.902,4.7,12.55c1.925,2.477,2.799,2.189,2.633,10.044
		c-0.021,1.031-1.931,0.088-2.971-0.568c-8.215-5.175-21.4-12.149-24.301-13.745c-0.879-0.483-0.288-2.879-0.041-4.155
		c0.227-1.169,4.157-2.708,5.036-3.406c1.798-1.428,2.093-4.673,2.014-5.089l0.396-84.715c0,0-0.442-7.625-6.378-10.395
		c-2.944-1.374-21.257-11.142-26.229-11.803c-4.13-0.549-5.708,8.658-6.65,8.584c-6.867-0.538-4.687-4.758-4.687-8.186
		c0,0,0.277-9.939,3.038-11.97C584.794,51.478,639.441,77.095,667.97,93.655L667.97,93.655
		C667.97,93.655,667.267,93.228,667.97,93.655z"/>
	<path fill-rule="evenodd" clip-rule="evenodd" fill="#3A3A3A" d="M502.843,65.206c1.441-0.12,0.942,4.163-0.806,4.21
		c-4.482,0.122-4.824,4.495-4.824,4.495s-1.06,48.659,0.731,53.083c1.919,4.741,4.822,8.424,12.961,8.598
		c13.6,0.291,14.511-9.412,14.511-9.412s0.585-45.568,0.119-48.715c-0.371-2.505-2.793-2.717-5.08-3.954
		c-1.012-0.547-1.207-2.373-0.81-3.831c0,0,0.426-1.446,0.979-1.739c0.959-0.507,25.991,7.037,39.281,9.381
		c1.762,0.782,0.83,4.612-0.343,4.698c-4.18,0.305-5.433-0.814-5.494,4.292c-0.015,1.181-0.001,56.221-0.001,56.221
		s0.057,3.654,0.524,4.737c0.517,1.196,0.987,1.196,2.836,2.241c3.72,2.102,8.087,3.597,8.087,3.597s4.42,1.462,5.486,0.223
		c0.583-0.678,0.277-5.275,0.277-5.275l-0.393-56.352c0,0-0.013-1.401-0.26-2.268c-0.292-1.024-0.96-1.823-1.673-2.205
		c-1.499-0.803-3.24-1.487-4.633-2.616c-0.756-0.612-0.666-2.179-0.277-3.573c0,0,0.388-0.784,0.791-1.356
		c0.371-0.526,2.494,0.393,2.494,0.393l20.327,7.6c0.785,0.784,0.143,4.509-0.447,4.769c-1.231,0.542-4.688-1.562-5.279,1.205
		l0.043,59.849c0,0-0.14,5.09,1.607,6.3c4.832,3.347,19.267,10.033,19.267,10.033c11.133,5.04,3.234-6.174,10.689-0.997
		c0,0,1.206,2.851-1.02,14.324c-0.195,1.006-10.273-5.692-13.791-7.253c-20.521-10.555-39.011-17.097-60.708-24.912
		c-0.439-1.685,0.013-5.355,1.396-5.738c2.591-0.718,4.025,0.386,5.663-1.047c1.807-1.582,0.584-50.259,0.219-61.208
		c-0.044-1.314-0.021-1.264-0.217-1.909c-0.224-0.74-0.903-0.836-1.55-1.096c-2.733-1.1-8.933-2.667-10.053-2.784
		c-2.289-0.239-2.01,3.578-2.01,3.578s0.33,45.149-0.922,50.21c-1.464,5.915-3.416,9.454-11.028,12.804
		c-6.651,2.927-15.305,2.5-21.364-1.211c-11.922-7.623-12.509-21.5-12.313-34.787V73.526c0.084-4.769-3.191-4.646-5.564-5.804
		c-1.587-0.774-1.696-2.856-0.765-4.282c0.474-0.725,3.61-0.209,3.61-0.209L502.843,65.206L502.843,65.206L502.843,65.206z"/>
	<path fill-rule="evenodd" clip-rule="evenodd" fill="#3A3A3A" d="M481.149,105.464c-3.319-13.681-17.394-20.914-29.507-24.82
		c0,0,8.634-2.348,12.113-7.966c6.394-10.324,4.037-20.849,0.589-28.578c0,0-4.642-7.548-11.366-11.236
		c-17.081-9.367-37.398-8.197-53.32-2.835v5.082c2.343,0.782,4.691-1.76,6.45,0.586c2.344,35.564,2.118,104.497,0.598,106.825
		c-1.398,2.141-5.089,1.24-6.169,2.31s-1.235,6.035,0.285,6.557c0,0,7.729,2.478,17.058,3.089
		c13.066,0.854,42.36,2.577,56.822-13.839C482.715,131.454,484.862,117.384,481.149,105.464L481.149,105.464L481.149,105.464z
		 M441.149,35.012c6.331,4.046,7.843,5.955,10.493,10.063c4.298,6.45,2.15,16.026-0.978,22.476
		c-7.036,9.38-18.177,12.312-29.507,10.749l-0.394-45.927c4.688-1.368,14.071,0.392,14.071,0.392S439.235,33.789,441.149,35.012z
		 M466.687,128.523c-3.516,10.357-13.475,16.4-24.432,18.114c-6.984,1.093-12.453,0.391-18.674-0.095c0,0-2.328-0.238-2.443-4.847
		c-0.035-1.417,0.021-56.751,0.021-56.751c16.217-3.908,31.46,1.172,41.822,13.484C468.444,106.636,470.406,118.753,466.687,128.523
		L466.687,128.523L466.687,128.523z"/>
	<path fill-rule="evenodd" clip-rule="evenodd" fill="#3A3A3A" d="M396.336,82.988c-18.954-24.038-50.579-12.584-73.25-4.962
		c-0.841,2.104,0.208,4.871,0.946,5.325c0.96,0.591,3.704,0.03,3.704,0.03l0.004,60.285c0,0,0.279,5.346-4.172,7.219
		c-0.951,0.4-0.999,6.394,0.071,6.17l21.496-7.037c1.116-0.407,0.683-4.504-0.565-4.569c-4.086-0.21-5.034-2.161-5.116-3.765
		l-0.003-59.317c0,0-0.222-1.416,0.505-2.199c0.667-0.719,1.227-0.817,1.227-0.817c0.446-0.177,3.439-1.229,4.396-1.477
		c3.857-0.997,7.415-1.535,7.859-1.188s0.496,1.557,0.496,1.557s0.401,59.218,0.224,60.803c-0.275,2.46-0.572,3.182-4.346,4.623
		c-0.729,0.278-1.655,3.221-0.965,5.371c20.523-2.344,41.63-7.23,51.593-27.554C405.521,109.566,403.958,93.15,396.336,82.988
		L396.336,82.988L396.336,82.988z M385.979,127.546c-4.885,6.056-12.311,12.115-20.325,12.115l0.168-57.327
		c0,0,0.044-5.49,1.114-6.313c0.921-0.709,2.637-1.055,5.606-0.404c7.374,1.616,10,4.495,12.07,6.981
		C394.091,93.981,393.991,114.844,385.979,127.546L385.979,127.546L385.979,127.546z"/>
	<path fill-rule="evenodd" clip-rule="evenodd" fill="#3A3A3A" d="M316.992,144.938c-0.388,9.964-11.627,12.26-19.052,15.971
		c-1.957,0.782-6.023,1.728-6.593-1.169v-30.68c0,0,14.537-5.569,18.222-6.206c2.325-0.402,1.952,5.639,2.734,5.669
		c0.965,0.037,1.862,0,2.639-0.587l0.002-21.529c0,0-2.946,0.679-3.122,1.411c-0.976,4.063-0.726,8.546-3.623,9.371
		c0,0-16.306,5.965-16.853,6.057l-0.263-17.651c0,0-0.131-3.199,0.095-5.344s0.033-2.449,2.988-4.084
		c1.232-0.682,10.601-5.021,12.964-5.884c3.938-1.438,3.565,2.273,4.729,4.64c0.133,0.27,1.016,0.368,2.188,0.191
		c0.749-0.113,0.679-1.321,0.679-1.321V81.819c-0.043-0.021-0.241-1.114-1.654-0.442c-1.374,0.653-21.229,8.381-31.643,12.36
		c-3.21,1.227-9.218,3.205-7.235,7.612c0.059,0.131,0.296,0.387,0.448,0.401c1.618,0.149,5.991-0.81,6.15,1.156l0.048,65.873
		c0.41,1.47-2.148,3.711-4.103,3.322c-1.566-13.875-8.015-29.314-22.083-36.155c5.666-1.954,11.53-4.689,15.438-10.355
		c6.059-7.034,4.885-19.544,0.978-27.555c-11.536-18.607-34.936-19.55-57.651-15.438c-3.126,0.39-8.598,1.951-6.06,6.448
		l5.081,0.608c0,0,2.544,0.562,1.957,2.323v118.689c-4.256,8.6-3.036,10.5-2.055,10.5c1.926,0,18.996-14.289,21.596-16.625
		c1.076-0.967,1.294-4.786,0.732-5.293c-1.552-1.401-4.837,4.118-7.18,0.605v-46.606v-7.185l17.392-6.402
		c14.049,2.373,18.63,19.102,19.549,31.771c0.57,7.856-9.585,10.637-5.088,16.108c17.783-10.356,36.154-19.737,55.304-26.774
		c5.671-2.344,5.085-11.452,5.671-16.532c0,0,0.072-0.688-1.709-0.469C317.144,143.946,316.992,144.938,316.992,144.938
		L316.992,144.938L316.992,144.938z M244.297,131.844c0,0-13.146,5.68-16.806,5.782V87.677c3.128-2.344,8.599-1.367,12.703-0.976
		c5.472,1.368,11.753,3.102,16.432,9.15c3.88,5.015,5.651,9.416,4.086,16.645C259.931,121.683,252.502,128.523,244.297,131.844
		L244.297,131.844L244.297,131.844z"/>
	<path fill-rule="evenodd" clip-rule="evenodd" fill="#3A3A3A" d="M344.539,183.054c1.396,0,1.919-0.321,1.919-1.234v-5.514
		c0-2.476-1.357-3.195-3.042-3.314c-0.519-0.038-0.833-0.312-0.833-0.937c0-0.623,1.154-0.623,2.318-0.623
		c1.596,0,3.192,0.312,4.789,0.312c1.601,0,3.197-0.312,4.799-0.312c0.558,0,1.154,0,1.154,0.623c0,0.624-0.676,0.819-1.082,0.937
		c-1.233,0.362-2.031,1.762-2.031,3.314v18.005c0,2.487,1.356,3.211,3.032,3.333c0.521,0.039,0.842,0.311,0.842,0.938
		c0,0.626-1.158,0.626-2.317,0.626c-1.598,0-3.196-0.314-4.793-0.314c-1.598,0-3.196,0.314-4.794,0.314c-0.56,0-1.162,0-1.162-0.626
		c0-0.627,0.685-0.819,1.083-0.938c1.558-0.481,2.037-2.01,2.037-3.333v-7.709c0-1.279-0.279-1.362-1.437-1.362h-9.795
		c-0.676,0-0.8,0.724-0.8,1.287v7.785c0,2.487,1.362,3.211,3.039,3.333c0.521,0.039,0.841,0.311,0.841,0.938
		c0,0.626-1.159,0.626-2.32,0.626c-1.599,0-3.196-0.314-4.79-0.314c-1.596,0-3.195,0.314-4.796,0.314c-0.56,0-1.16,0-1.16-0.626
		c0-0.627,0.682-0.819,1.081-0.938c1.556-0.481,2.037-2.01,2.037-3.333v-18.005c0-2.476-1.355-3.195-3.034-3.314
		c-0.521-0.038-0.841-0.312-0.841-0.937c0-0.623,1.159-0.623,2.319-0.623c1.597,0,3.194,0.312,4.791,0.312s3.196-0.312,4.795-0.312
		c0.559,0,1.159,0,1.159,0.623c0,0.624-0.683,0.819-1.08,0.937c-1.557,0.479-2.041,1.997-2.041,3.314v5.514
		c0,0.797,0.441,1.234,1.485,1.234H344.539L344.539,183.054L344.539,183.054z"/>
	<path fill-rule="evenodd" clip-rule="evenodd" fill="#3A3A3A" d="M381.025,183.599c0-5.722,3.32-10.763,8.039-10.763
		c6.393,0,9.673,8.764,9.673,14.202c0,5.723-3.314,10.764-8.038,10.764C384.307,197.802,381.025,189.037,381.025,183.599
		L381.025,183.599L381.025,183.599z M374.557,186.038c0,8.12,6.068,13.555,14.267,13.555c8.317,0,16.392-5.752,16.392-14.757
		c0-8.477-6.438-13.794-14.634-13.794C382.268,171.041,374.557,177.437,374.557,186.038L374.557,186.038L374.557,186.038z"/>
	<path fill-rule="evenodd" clip-rule="evenodd" fill="#3A3A3A" d="M425.789,177.896c0-1.517-0.48-3.71-1.961-4.431
		c-1.314-0.636-1.871-0.76-1.871-1.393c0-0.522,0.156-0.64,0.518-0.64c1.201,0,2.396,0.154,3.59,0.154
		c1.195,0,2.389-0.154,3.59-0.154c0.797,0,1.076,0.118,1.355,0.679l7.785,16.196c0.803,1.638,1.084,2.319,1.203,2.319
		c0.24,0,0.561-0.762,1-1.561l8.748-16.717c0.438-0.838,0.602-0.917,0.916-0.917c1.201,0,2.396,0.154,3.594,0.154
		c1.203,0,2.402-0.154,3.6-0.154c0.236,0,0.363,0.2,0.318,0.64c0,0.633-0.68,0.835-1.912,1.274
		c-1.445,0.479-2.078,0.877-2.078,3.229v14.166c0,3.317,0.199,5.472,3.311,6.667c0.846,0.316,1.203,0.518,1.203,1.156
		c0,0.644-0.801,0.644-1.6,0.644c-1.596-0.162-3.199-0.155-4.793-0.314c-1.6,0.159-3.199,0.152-4.799,0.314
		c-0.801,0-1.598,0-1.598-0.644c0-0.639,0.361-0.84,1.123-1.156c0.994-0.439,1.074-1.157,1.074-3.35v-12.773
		c0-0.398-0.035-1.118-0.193-1.118c-0.285,0-0.521,0.558-1.043,1.598l-7.949,16.321c-0.279,0.561-0.682,1.122-1.162,1.122
		s-0.674-0.445-0.873-0.84l-7.787-16.923c-0.242-0.556-0.527-1.111-0.805-1.111c-0.238,0-0.318,0.155-0.318,0.916v10.531
		c0,2.515,0.596,4.589,3.357,5.628c0.635,0.241,1.074,0.518,1.074,1.156c0,0.644-0.68,0.644-1.074,0.644
		c-1.398,0-2.801-0.314-4.195-0.314c-1.387,0-2.789,0.314-4.18,0.314c-0.404,0-0.844,0-0.844-0.644c0-0.639,0.48-0.836,1.08-1.156
		c2.076-1.121,2.596-2.274,2.596-4.468V177.896L425.789,177.896L425.789,177.896z"/>
	<path fill-rule="evenodd" clip-rule="evenodd" fill="#3A3A3A" d="M483.972,178.377c0-1.957-0.194-4.954-1.876-5.149
		c-1.232-0.161-2.082-0.522-2.082-1.161c0-0.635,0.686-0.635,1.484-0.635c3.075,0.397,6.154,0.271,9.224,0.312
		c3.068,0,6.124-0.312,9.195-0.312c0.898,0,1.686,0,1.686,0.793c0,0.874-0.167,1.751-0.167,2.63c0,0.881,0.167,1.76,0.167,2.641
		c0,0.439-0.118,0.762-0.705,0.762c-0.627,0-0.738-0.725-0.774-1.078c-0.281-2.524-1.441-3.564-6.092-3.564h-2.593
		c-1.114,0-1.391,0.361-1.391,1.92v7c0,0.64,0.674,0.839,2.269,0.839c2.306,0,4.059-0.681,4.693-2.403
		c0.442-1.118,0.599-1.237,0.998-1.237c0.598,0,0.598,0.561,0.598,1.12c0,1.199-0.099,2.398-0.099,3.606
		c0,1.206,0.099,2.402,0.099,3.597c0,0.559,0,1.115-0.758,1.115c-0.602,0-0.602-1.196-1.074-1.988
		c-0.993-1.633-2.151-1.875-4.457-1.875c-1.916,0-2.269,0.519-2.269,1.512v6.81c0,2.947,0.519,3.39,2.623,3.39
		c4.175,0,6.491-1.276,7.837-2.589c1.331-1.317,1.728-2.672,2.367-2.672c0.486,0,0.647,0.36,0.647,0.76
		c0,0.794-0.324,2.347-0.609,3.144c-0.515,1.593-2.289,3.543-4.149,3.543c-2.667,0-5.334-0.314-8.001-0.314
		c-2.671,0-5.349,0.314-8.022,0.314c-1.242,0-1.844,0-1.844-0.637c0-0.639,0.8-0.915,1.524-1.274
		c1.312-0.637,1.551-1.592,1.551-3.864V178.377L483.972,178.377L483.972,178.377z"/>
	<path fill-rule="evenodd" clip-rule="evenodd" fill="#3A3A3A" d="M530.934,192.04c-0.079-0.359-0.278-0.919-0.278-1.279
		c0-0.283,0.157-0.603,0.836-0.603c0.803,0,1.008,1.081,1.283,1.682c1.486,3.158,4.365,5.962,8.116,5.962
		c2.788,0,5.067-1.723,5.067-4.643c0-6.521-14.819-3.362-14.819-14.282c0-4.125,3.365-7.837,8.075-7.837
		c3.391,0,5.424,1.557,6.744,1.557c0.442,0,1.323-0.56,1.686-0.56c0.518,0,0.636,0.239,0.636,0.757
		c-0.079,2.283,0.563,5.924,0.563,6.361c0,0.522-0.243,0.883-0.8,0.883c-0.719,0-0.885-0.643-1.211-1.641
		c-0.916-2.919-4.304-5.562-7.342-5.562c-2.436,0-4.547,1.401-4.547,3.681c0,6.802,14.821,3.203,14.821,14.244
		c0,3.879-3.049,8.832-8.997,8.832c-2.553,0-4.786-0.834-7.23-1.316c-0.4-0.081-1.038-0.116-1.201-0.677L530.934,192.04
		L530.934,192.04L530.934,192.04z"/>
	<g id="URL_1_">
		<g>
			<path fill="#3A3A3A" d="M85.35,306.715l5.363,10.857c1.357,2.71,2.79,5.706,4.125,8.795l0.114-0.033
				c-0.302-3.366-0.374-6.797-0.438-9.739l-0.162-12.337l6.881-1.878l5.859,10.416c1.606,2.953,3.213,5.902,4.662,8.957l0.114-0.033
				c-0.476-3.321-0.761-6.629-1.007-10.012l-0.628-11.783l8.545-2.333l-0.95,30.388l-8.201,2.237l-5.326-9.142
				c-1.44-2.566-2.631-4.892-4.158-8.23l-0.113,0.03c0.439,3.637,0.584,6.432,0.544,9.216l-0.121,10.63l-8.198,2.234l-15.792-25.817
				L85.35,306.715z"/>
		</g>
		<g>
			<path fill="#3A3A3A" d="M132.624,294.306l4.939,11.059c1.249,2.762,2.564,5.812,3.778,8.947l0.115-0.026
				c-0.171-3.376-0.11-6.807-0.058-9.746l0.316-12.335l6.948-1.609l5.45,10.634c1.491,3.011,2.979,6.023,4.31,9.131l0.115-0.027
				c-0.345-3.335-0.502-6.655-0.616-10.047l-0.167-11.793l8.629-1.999l-2.134,30.327l-8.281,1.915l-4.968-9.344
				c-1.338-2.617-2.435-4.986-3.834-8.383l-0.113,0.027c0.295,3.65,0.334,6.45,0.184,9.23l-0.534,10.615l-8.278,1.917
				l-14.777-26.414L132.624,294.306z"/>
		</g>
		<g>
			<path fill="#3A3A3A" d="M180.224,283.73l4.534,11.232c1.149,2.804,2.354,5.901,3.452,9.077l0.117-0.02
				c-0.05-3.382,0.137-6.807,0.295-9.745l0.765-12.316l7.002-1.356l5.062,10.826c1.377,3.063,2.757,6.125,3.976,9.281l0.114-0.021
				c-0.223-3.348-0.262-6.67-0.251-10.063l0.259-11.795l8.696-1.681l-3.232,30.229l-8.345,1.617l-4.626-9.521
				c-1.241-2.664-2.253-5.072-3.524-8.519l-0.116,0.023c0.162,3.659,0.099,6.458-0.151,9.23l-0.917,10.589l-8.346,1.618
				l-13.807-26.933L180.224,283.73z"/>
		</g>
		<g>
			<path fill="#3A3A3A" d="M227.236,305.231c-2.988,0.512-5.548-1.402-6.079-4.506c-0.54-3.164,1.235-5.82,4.34-6.35
				c3.104-0.531,5.596,1.331,6.147,4.554c0.531,3.104-1.186,5.75-4.35,6.292L227.236,305.231z"/>
		</g>
		<g>
			<path fill="#3A3A3A" d="M236.319,283.274c-0.661-4.229-1.206-6.971-1.707-9.42l7.691-1.196l1.119,5.24l0.233-0.036
				c0.817-4.401,4.066-6.708,6.828-7.142c0.823-0.126,1.233-0.19,1.898-0.176l1.316,8.457c-0.673-0.074-1.454-0.074-2.452,0.083
				c-3.289,0.513-5.246,2.621-5.404,5.475c-0.025,0.605,0.024,1.317,0.135,2.023l2.27,14.567l-8.927,1.39L236.319,283.274z"/>
		</g>
		<g>
			<path fill="#3A3A3A" d="M267.962,286.472c0.794,3.672,4.683,4.949,8.866,4.384c3.062-0.414,5.483-1.159,7.793-2.249l1.996,5.909
				c-2.786,1.575-6.292,2.707-10.18,3.229c-9.779,1.317-16.144-3.641-17.359-12.653c-0.983-7.307,2.465-15.988,12.479-17.337
				c9.308-1.25,13.817,5.516,14.777,12.642c0.205,1.534,0.211,2.91,0.181,3.575L267.962,286.472z M277.68,278.926
				c-0.292-2.179-1.728-5.703-5.852-5.15c-3.771,0.51-4.842,4.132-4.751,6.578L277.68,278.926z"/>
		</g>
		<g>
			<path fill="#3A3A3A" d="M300.242,256.731c0.287,2.48-1.37,4.706-4.322,5.047c-2.834,0.329-4.956-1.46-5.185-3.945
				c-0.36-2.594,1.304-4.761,4.198-5.092C297.826,252.403,299.882,254.14,300.242,256.731z M295.243,294.708l-3.341-28.874
				l8.975-1.038l3.341,28.871L295.243,294.708z"/>
		</g>
		<g>
			<path fill="#3A3A3A" d="M336.938,247.975l3.176,33.372c0.312,3.253,0.755,6.675,1.06,8.617l-7.986,0.761l-0.82-4.222l-0.12,0.01
				c-1.522,3.432-4.856,5.42-8.584,5.773c-6.863,0.655-12.924-4.679-13.779-13.671c-0.992-9.759,4.568-15.961,11.492-16.62
				c3.551-0.336,6.448,0.64,7.942,2.529l0.119-0.013l-1.492-15.677L336.938,247.975z M330.354,274.156
				c-0.044-0.473-0.167-1.118-0.27-1.584c-0.764-2.376-2.907-4.2-5.688-3.936c-4.084,0.388-5.864,4.259-5.43,8.815
				c0.467,4.912,3.185,7.756,6.913,7.402c2.603-0.248,4.506-2.22,4.795-4.815c0.116-0.668,0.114-1.323,0.04-2.096L330.354,274.156z"
				/>
		</g>
		<g>
			<path fill="#3A3A3A" d="M346.799,247.173l9.015-0.608l1.112,16.544l0.12-0.006c1.552-2.606,4.469-4.41,8.498-4.684
				c6.94-0.466,12.428,4.942,12.967,13.844c0.702,10.437-5.588,16.102-12.229,16.548c-3.38,0.226-6.727-0.799-9.032-4.099
				l-0.117,0.009l-0.086,4.056l-7.65,0.517c-0.01-1.906-0.126-5.412-0.346-8.675L346.799,247.173z M357.816,276.335
				c0.04,0.593,0.133,1.125,0.286,1.589c0.757,2.391,2.956,4.09,5.563,3.914c3.857-0.257,6.028-3.382,5.678-8.6
				c-0.304-4.507-2.561-7.931-6.771-7.645c-2.432,0.161-4.562,2.149-4.979,4.8c-0.082,0.543-0.106,1.082-0.066,1.673
				L357.816,276.335z"/>
		</g>
		<g>
			<path fill="#3A3A3A" d="M413.606,276.514c0.147,3.802,0.39,6.886,0.604,9.314l-7.84,0.309l-0.578-4.082l-0.178,0.007
				c-1.059,1.825-3.672,4.903-8.899,5.107c-5.88,0.233-10.359-3.278-10.712-12.244l-0.674-17.046l9.088-0.358l0.615,15.617
				c0.167,4.219,1.633,6.717,4.779,6.594c2.495-0.098,3.853-1.877,4.392-3.326c0.215-0.542,0.245-1.259,0.219-1.97l-0.68-17.284
				l9.085-0.358L413.606,276.514z"/>
		</g>
		<g>
			<path fill="#3A3A3A" d="M431.342,248.369c0.049,2.494-1.817,4.55-4.789,4.602c-2.851,0.057-4.791-1.932-4.778-4.427
				c-0.106-2.615,1.758-4.608,4.67-4.665C429.355,243.825,431.233,245.754,431.342,248.369z M422.699,285.679l-0.537-29.057
				l9.031-0.169l0.539,29.061L422.699,285.679z"/>
		</g>
		<g>
			<path fill="#3A3A3A" d="M440.272,243.211l9.032-0.042l0.198,42.2l-9.035,0.042L440.272,243.211z"/>
		</g>
		<g>
			<path fill="#3A3A3A" d="M468.853,248.529l-0.092,7.907l6.479,0.074l-0.078,6.655l-6.478-0.074l-0.121,10.518
				c-0.041,3.507,0.771,5.123,3.504,5.152c1.251,0.015,1.785-0.037,2.679-0.207l-0.021,6.837c-1.194,0.46-3.337,0.795-5.891,0.762
				c-2.915-0.032-5.341-1.128-6.744-2.633c-1.648-1.743-2.447-4.545-2.396-8.647l0.136-11.886l-3.863-0.045l0.08-6.655l3.861,0.045
				l0.064-5.468L468.853,248.529z"/>
		</g>
		<g>
			<path fill="#3A3A3A" d="M483.131,243.502l9.027,0.319l-0.588,16.573l0.117,0.006c0.996-1.214,2.22-2.183,3.669-2.847
				c1.394-0.662,3.071-1.019,4.735-0.96c5.764,0.206,10.017,4.342,9.705,13.075l-0.604,16.986l-9.029-0.319l0.568-15.979
				c0.135-3.801-1.082-6.462-4.465-6.58c-2.377-0.086-3.912,1.407-4.624,2.984c-0.262,0.587-0.349,1.355-0.369,2.011l-0.613,17.225
				l-9.026-0.321L483.131,243.502z"/>
		</g>
		<g>
			<path fill="#3A3A3A" d="M547.521,274.128c-0.691,10.617-8.54,14.991-16.312,14.487c-8.48-0.554-14.642-6.553-14.032-15.921
				c0.61-9.373,7.17-14.961,16.48-14.356C542.552,258.914,548.085,265.41,547.521,274.128z M526.501,273.062
				c-0.322,4.981,1.514,8.854,5.366,9.103c3.499,0.228,5.98-3.126,6.321-8.342c0.277-4.33-1.095-8.827-5.187-9.093
				C528.674,264.445,526.781,268.792,526.501,273.062z"/>
		</g>
		<g>
			<path fill="#3A3A3A" d="M555.637,269.729c0.367-3.605,0.562-6.694,0.704-9.248l7.572,0.774l0.011,3.945l0.18,0.016
				c1.429-1.705,4.246-4.164,9.217-3.657c3.726,0.381,6.487,2.576,7.422,5.716l0.117,0.013c1.219-1.429,2.64-2.419,4.081-3.109
				c1.693-0.782,3.519-1.073,5.646-0.857c5.554,0.568,9.354,4.901,8.474,13.533l-1.739,17.028l-8.754-0.895l1.608-15.727
				c0.43-4.197-0.682-6.76-3.58-7.059c-2.07-0.209-3.694,1.058-4.46,2.711c-0.304,0.625-0.516,1.56-0.591,2.27l-1.725,16.91
				l-8.753-0.893l1.655-16.201c0.373-3.667-0.676-6.282-3.512-6.572c-2.305-0.236-3.848,1.397-4.529,2.822
				c-0.365,0.68-0.512,1.502-0.584,2.209l-1.725,16.853l-8.75-0.895L555.637,269.729z"/>
		</g>
		<g>
			<path fill="#3A3A3A" d="M614.395,284.521c-0.224,3.75,3.181,6.022,7.359,6.605c3.062,0.425,5.591,0.358,8.113-0.071l0.33,6.229
				c-3.105,0.767-6.788,0.915-10.673,0.374c-9.771-1.361-14.568-7.85-13.316-16.859c1.017-7.299,6.673-14.733,16.681-13.337
				c9.304,1.295,11.826,9.027,10.836,16.151c-0.215,1.53-0.581,2.859-0.788,3.489L614.395,284.521z M625.783,279.864
				c0.305-2.177-0.129-5.958-4.251-6.533c-3.768-0.524-5.776,2.677-6.344,5.059L625.783,279.864z"/>
		</g>
		<g>
			<path fill="#3A3A3A" d="M639.658,291.974c1.475,1.269,4.684,3.007,7.319,3.446c2.699,0.446,3.968-0.305,4.211-1.773
				c0.244-1.464-0.519-2.313-3.676-3.984c-5.593-2.978-7.341-6.583-6.728-9.915c0.896-5.394,6.144-8.68,13.234-7.5
				c3.344,0.554,6.209,1.812,7.819,2.987l-2.604,5.892c-1.175-0.917-3.48-2.266-5.942-2.676c-2.171-0.359-3.549,0.316-3.789,1.781
				c-0.228,1.349,0.771,2.239,4.086,4.056c5.139,2.78,6.969,5.914,6.324,10.146c-0.882,5.338-5.767,8.623-13.976,7.259
				c-3.756-0.623-6.95-2.06-8.924-3.591L639.658,291.974z"/>
		</g>
		<g>
			<path fill="#3A3A3A" d="M669.128,305.761c-2.978-0.556-4.719-3.236-4.142-6.334c0.584-3.153,3.173-5.03,6.268-4.455
				c3.1,0.574,4.787,3.187,4.19,6.401c-0.576,3.097-3.102,4.983-6.258,4.4L669.128,305.761z"/>
		</g>
		<g>
			<path fill="#3A3A3A" d="M705.823,290.121l0.423-0.962h-2.156C704.806,289.47,705.377,289.801,705.823,290.121z"/>
		</g>
		<g>
			<path fill="#3A3A3A" d="M682.634,293.096c-1.855,8.962,2.855,15.823,12.055,17.726c3.374,0.7,6.475,0.672,8.192,0.298
				l0.309-6.794c-1.458,0.307-3.157,0.319-5.258-0.116c-4.303-0.889-7.229-4.345-6.147-9.584c0.475-2.45,1.728-4.348,3.479-5.467
				h-11.301C683.378,290.381,682.923,291.696,682.634,293.096z"/>
		</g>
		<g>
			<path fill="#3A3A3A" d="M702.057,281.331c-8.809-1.822-15.199,1.777-18.094,7.827h11.301c1.587-1.014,3.582-1.389,5.795-0.931
				c1.232,0.254,2.225,0.58,3.031,0.931h2.156l2.337-5.325C706.864,282.751,704.389,281.814,702.057,281.331z"/>
		</g>
		<g>
			<path fill="#3A3A3A" d="M710.121,298.739c-2.161,9.138,2.914,16.082,11.186,18.04c7.575,1.792,16.044-1.212,18.493-11.565
				c1.613-6.811-0.88-12.86-6.394-16.056h-17.08C713.342,291.174,711.142,294.421,710.121,298.739z M727.054,293.522
				c3.989,0.945,4.599,5.606,3.6,9.833c-1.207,5.089-4.211,7.979-7.623,7.173c-3.76-0.89-4.92-5.013-3.773-9.871
				C720.241,296.493,722.831,292.522,727.054,293.522z"/>
		</g>
		<g>
			<path fill="#3A3A3A" d="M716.326,289.158h17.08c-1.369-0.793-2.916-1.418-4.643-1.827
				C723.972,286.197,719.658,286.907,716.326,289.158z"/>
		</g>
		<g>
			<path fill="#3A3A3A" d="M748.625,302.254c0.975-3.492,1.698-6.498,2.271-8.993l7.327,2.052l-0.657,3.891l0.17,0.046
				c1.7-1.436,4.898-3.381,9.706-2.034c3.607,1.01,5.955,3.643,6.337,6.898l0.116,0.034c1.446-1.2,3.01-1.936,4.551-2.367
				c1.803-0.482,3.647-0.462,5.708,0.117c5.381,1.506,8.385,6.421,6.045,14.777l-4.617,16.485l-8.471-2.375l4.265-15.224
				c1.138-4.064,0.481-6.778-2.325-7.564c-2.003-0.56-3.82,0.412-4.854,1.91c-0.406,0.569-0.779,1.451-0.971,2.136l-4.585,16.371
				l-8.47-2.374l4.392-15.683c0.994-3.549,0.409-6.304-2.339-7.076c-2.231-0.623-4.029,0.725-4.943,2.009
				c-0.481,0.608-0.762,1.393-0.955,2.082l-4.568,16.311l-8.469-2.374L748.625,302.254z"/>
		</g>
	</g>
	<path fill-rule="evenodd" clip-rule="evenodd" fill="#3A3A3A" d="M180.783,120.95l-30.484-0.342c0,0-0.615-3.173,0.49-4.28
		c12.681-0.845,22.52-6.914,22.52-14.28c0-7.944-11.438-14.384-25.548-14.384s-25.548,6.439-25.548,14.384
		c0,7.262,9.562,13.265,21.982,14.241c1.252,0.78,1.219,3.062,0.768,4.271l-27.889,0.146l-2.734,5.667h68.788L180.783,120.95z"/>
	<path fill-rule="evenodd" clip-rule="evenodd" fill="#3A3A3A" d="M682.534,120.95l30.484-0.342c0,0,0.615-3.173-0.49-4.28
		c-12.681-0.845-22.52-6.914-22.52-14.28c0-7.944,11.438-14.384,25.548-14.384s25.548,6.439,25.548,14.384
		c0,7.262-9.562,13.265-21.982,14.241c-1.252,0.78-1.219,3.062-0.768,4.271l27.889,0.146l2.734,5.667h-68.788L682.534,120.95z"/>
</g>
</svg>
